M48
;GenerationSoftware,Autodesk,EAGLE,9.1.3*%
;CreationDate,2019-01-29T21:48:44Z*%
FMAT,2
ICI,OFF
METRIC,TZ,000.000
T7C0.350
T6C0.813
T5C0.900
T4C1.016
T3C1.092
T2C2.000
T1C3.200
%
G90
M71
T1
X86500Y63000
X4000Y6500
X78000Y6500
T2
X92050Y15240
X92050Y42158
X91897Y54158
X83160Y15240
X83160Y9740
X83160Y20740
T3
X91964Y48158
X91948Y51158
X91948Y45158
T4
X33020Y9017
X35560Y9017
X38100Y9017
X40640Y9017
X43180Y9017
X10160Y3937
X12700Y3937
X15240Y3937
X82804Y58115
X90424Y58115
X27940Y9017
X90424Y26975
X72390Y9017
X69850Y9017
X67310Y9017
X64770Y9017
X62230Y9017
X59690Y9017
X57150Y9017
X54610Y9017
X52070Y9017
X49530Y9017
X82804Y26975
X20320Y9017
X22860Y9017
X25400Y9017
X30480Y9017
T5
X89075Y31982
X89075Y36382
T6
X89306Y5842
X89306Y3302
T7
X86258Y42672
X84709Y31572
M30