G04 EAGLE Gerber RS-274X export*
G75*
%MOMM*%
%FSLAX34Y34*%
%LPD*%
%AMOC8*
5,1,8,0,0,1.08239X$1,22.5*%
G01*
%ADD10C,0.254000*%


D10*
X0Y30000D02*
X114Y27385D01*
X456Y24791D01*
X1022Y22235D01*
X1809Y19739D01*
X2811Y17321D01*
X4019Y15000D01*
X5425Y12793D01*
X7019Y10716D01*
X8787Y8787D01*
X10716Y7019D01*
X12793Y5425D01*
X15000Y4019D01*
X17321Y2811D01*
X19739Y1809D01*
X22235Y1022D01*
X24791Y456D01*
X27385Y114D01*
X30000Y0D01*
X926200Y0D01*
X928533Y373D01*
X930824Y947D01*
X933057Y1719D01*
X935213Y2683D01*
X937278Y3830D01*
X939235Y5154D01*
X941069Y6643D01*
X942766Y8286D01*
X944313Y10071D01*
X945699Y11984D01*
X946913Y14010D01*
X947946Y16135D01*
X948790Y18341D01*
X949438Y20613D01*
X949886Y22932D01*
X950130Y25282D01*
X950168Y27644D01*
X950000Y30000D01*
X950000Y640000D01*
X950168Y642356D01*
X950130Y644718D01*
X949886Y647068D01*
X949438Y649387D01*
X948790Y651659D01*
X947946Y653865D01*
X946913Y655990D01*
X945699Y658016D01*
X944313Y659929D01*
X942766Y661714D01*
X941069Y663357D01*
X939235Y664846D01*
X937278Y666170D01*
X935213Y667317D01*
X933057Y668281D01*
X930824Y669053D01*
X928533Y669627D01*
X926200Y670000D01*
X816600Y670000D01*
X813685Y670161D01*
X810767Y670067D01*
X807869Y669719D01*
X805012Y669120D01*
X802218Y668275D01*
X799508Y667189D01*
X796903Y665871D01*
X794423Y664330D01*
X792087Y662580D01*
X789912Y660633D01*
X787915Y658503D01*
X786111Y656208D01*
X784515Y653764D01*
X783137Y651190D01*
X781989Y648506D01*
X781079Y645732D01*
X780414Y642890D01*
X780000Y640000D01*
X780000Y160000D01*
X780186Y157660D01*
X780167Y155313D01*
X779944Y152977D01*
X779518Y150669D01*
X778893Y148407D01*
X778073Y146208D01*
X777064Y144089D01*
X775875Y142066D01*
X774513Y140154D01*
X772990Y138368D01*
X771318Y136721D01*
X769508Y135227D01*
X767575Y133896D01*
X765533Y132739D01*
X763398Y131764D01*
X761186Y130979D01*
X758915Y130389D01*
X756600Y130000D01*
X30000Y130000D01*
X27385Y129886D01*
X24791Y129544D01*
X22235Y128978D01*
X19739Y128191D01*
X17321Y127189D01*
X15000Y125981D01*
X12793Y124575D01*
X10716Y122981D01*
X8787Y121213D01*
X7019Y119284D01*
X5425Y117207D01*
X4019Y115000D01*
X2811Y112679D01*
X1809Y110261D01*
X1022Y107765D01*
X456Y105209D01*
X114Y102615D01*
X0Y100000D01*
X0Y30000D01*
X886254Y320113D02*
X886331Y320698D01*
X886484Y321268D01*
X886709Y321813D01*
X887004Y322323D01*
X887363Y322791D01*
X887781Y323209D01*
X888249Y323568D01*
X888759Y323863D01*
X889304Y324088D01*
X889874Y324241D01*
X890459Y324318D01*
X891049Y324318D01*
X891634Y324241D01*
X892204Y324088D01*
X892749Y323863D01*
X893259Y323568D01*
X893727Y323209D01*
X894145Y322791D01*
X894504Y322323D01*
X894799Y321813D01*
X895024Y321268D01*
X895177Y320698D01*
X895254Y320113D01*
X895254Y319523D01*
X895177Y318938D01*
X895024Y318368D01*
X894799Y317823D01*
X894504Y317313D01*
X894145Y316845D01*
X893727Y316427D01*
X893259Y316068D01*
X892749Y315773D01*
X892204Y315548D01*
X891634Y315395D01*
X891049Y315318D01*
X890459Y315318D01*
X889874Y315395D01*
X889304Y315548D01*
X888759Y315773D01*
X888249Y316068D01*
X887781Y316427D01*
X887363Y316845D01*
X887004Y317313D01*
X886709Y317823D01*
X886484Y318368D01*
X886331Y318938D01*
X886254Y319523D01*
X886254Y320113D01*
X886254Y364113D02*
X886331Y364698D01*
X886484Y365268D01*
X886709Y365813D01*
X887004Y366323D01*
X887363Y366791D01*
X887781Y367209D01*
X888249Y367568D01*
X888759Y367863D01*
X889304Y368088D01*
X889874Y368241D01*
X890459Y368318D01*
X891049Y368318D01*
X891634Y368241D01*
X892204Y368088D01*
X892749Y367863D01*
X893259Y367568D01*
X893727Y367209D01*
X894145Y366791D01*
X894504Y366323D01*
X894799Y365813D01*
X895024Y365268D01*
X895177Y364698D01*
X895254Y364113D01*
X895254Y363523D01*
X895177Y362938D01*
X895024Y362368D01*
X894799Y361823D01*
X894504Y361313D01*
X894145Y360845D01*
X893727Y360427D01*
X893259Y360068D01*
X892749Y359773D01*
X892204Y359548D01*
X891634Y359395D01*
X891049Y359318D01*
X890459Y359318D01*
X889874Y359395D01*
X889304Y359548D01*
X888759Y359773D01*
X888249Y360068D01*
X887781Y360427D01*
X887363Y360845D01*
X887004Y361313D01*
X886709Y361823D01*
X886484Y362368D01*
X886331Y362938D01*
X886254Y363523D01*
X886254Y364113D01*
M02*
