G04 EAGLE Gerber RS-274X export*
G75*
%MOMM*%
%FSLAX34Y34*%
%LPD*%
%AMOC8*
5,1,8,0,0,1.08239X$1,22.5*%
G01*
%ADD10C,0.076200*%
%ADD11C,0.101600*%
%ADD12C,0.152400*%
%ADD13C,0.127000*%
%ADD14C,0.254000*%
%ADD15C,0.409600*%


D10*
X98933Y61341D02*
X106299Y63796D01*
X98933Y66252D01*
X98933Y69648D02*
X106299Y69648D01*
X106299Y68830D02*
X106299Y70467D01*
X98933Y70467D02*
X98933Y68830D01*
X98933Y73698D02*
X106299Y73698D01*
X98933Y73698D02*
X98933Y75744D01*
X98935Y75833D01*
X98941Y75922D01*
X98951Y76011D01*
X98964Y76099D01*
X98981Y76187D01*
X99003Y76274D01*
X99028Y76359D01*
X99056Y76444D01*
X99089Y76527D01*
X99125Y76609D01*
X99164Y76689D01*
X99207Y76767D01*
X99253Y76843D01*
X99303Y76918D01*
X99356Y76990D01*
X99412Y77059D01*
X99471Y77126D01*
X99532Y77191D01*
X99597Y77252D01*
X99664Y77311D01*
X99733Y77367D01*
X99805Y77420D01*
X99880Y77470D01*
X99956Y77516D01*
X100034Y77559D01*
X100114Y77598D01*
X100196Y77634D01*
X100279Y77667D01*
X100364Y77695D01*
X100449Y77720D01*
X100536Y77742D01*
X100624Y77759D01*
X100712Y77772D01*
X100801Y77782D01*
X100890Y77788D01*
X100979Y77790D01*
X100979Y77791D02*
X104253Y77791D01*
X104253Y77790D02*
X104342Y77788D01*
X104431Y77782D01*
X104520Y77772D01*
X104608Y77759D01*
X104696Y77742D01*
X104783Y77720D01*
X104868Y77695D01*
X104953Y77667D01*
X105036Y77634D01*
X105118Y77598D01*
X105198Y77559D01*
X105276Y77516D01*
X105352Y77470D01*
X105427Y77420D01*
X105499Y77367D01*
X105568Y77311D01*
X105635Y77252D01*
X105700Y77191D01*
X105761Y77126D01*
X105820Y77059D01*
X105876Y76990D01*
X105929Y76918D01*
X105979Y76843D01*
X106025Y76767D01*
X106068Y76689D01*
X106107Y76609D01*
X106143Y76527D01*
X106176Y76444D01*
X106204Y76359D01*
X106229Y76274D01*
X106251Y76187D01*
X106268Y76099D01*
X106281Y76011D01*
X106291Y75922D01*
X106297Y75833D01*
X106299Y75744D01*
X106299Y73698D01*
X106299Y81517D02*
X106299Y84791D01*
X106299Y81517D02*
X98933Y81517D01*
X98933Y84791D01*
X102207Y83972D02*
X102207Y81517D01*
X100979Y87597D02*
X104253Y87597D01*
X100979Y87597D02*
X100890Y87599D01*
X100801Y87605D01*
X100712Y87615D01*
X100624Y87628D01*
X100536Y87645D01*
X100449Y87667D01*
X100364Y87692D01*
X100279Y87720D01*
X100196Y87753D01*
X100114Y87789D01*
X100034Y87828D01*
X99956Y87871D01*
X99880Y87917D01*
X99805Y87967D01*
X99733Y88020D01*
X99664Y88076D01*
X99597Y88135D01*
X99532Y88196D01*
X99471Y88261D01*
X99412Y88328D01*
X99356Y88397D01*
X99303Y88469D01*
X99253Y88544D01*
X99207Y88620D01*
X99164Y88698D01*
X99125Y88778D01*
X99089Y88860D01*
X99056Y88943D01*
X99028Y89028D01*
X99003Y89113D01*
X98981Y89200D01*
X98964Y89288D01*
X98951Y89376D01*
X98941Y89465D01*
X98935Y89554D01*
X98933Y89643D01*
X98935Y89732D01*
X98941Y89821D01*
X98951Y89910D01*
X98964Y89998D01*
X98981Y90086D01*
X99003Y90173D01*
X99028Y90258D01*
X99056Y90343D01*
X99089Y90426D01*
X99125Y90508D01*
X99164Y90588D01*
X99207Y90666D01*
X99253Y90742D01*
X99303Y90817D01*
X99356Y90889D01*
X99412Y90958D01*
X99471Y91025D01*
X99532Y91090D01*
X99597Y91151D01*
X99664Y91210D01*
X99733Y91266D01*
X99805Y91319D01*
X99880Y91369D01*
X99956Y91415D01*
X100034Y91458D01*
X100114Y91497D01*
X100196Y91533D01*
X100279Y91566D01*
X100364Y91594D01*
X100449Y91619D01*
X100536Y91641D01*
X100624Y91658D01*
X100712Y91671D01*
X100801Y91681D01*
X100890Y91687D01*
X100979Y91689D01*
X104253Y91689D01*
X104342Y91687D01*
X104431Y91681D01*
X104520Y91671D01*
X104608Y91658D01*
X104696Y91641D01*
X104783Y91619D01*
X104868Y91594D01*
X104953Y91566D01*
X105036Y91533D01*
X105118Y91497D01*
X105198Y91458D01*
X105276Y91415D01*
X105352Y91369D01*
X105427Y91319D01*
X105499Y91266D01*
X105568Y91210D01*
X105635Y91151D01*
X105700Y91090D01*
X105761Y91025D01*
X105820Y90958D01*
X105876Y90889D01*
X105929Y90817D01*
X105979Y90742D01*
X106025Y90666D01*
X106068Y90588D01*
X106107Y90508D01*
X106143Y90426D01*
X106176Y90343D01*
X106204Y90258D01*
X106229Y90173D01*
X106251Y90086D01*
X106268Y89998D01*
X106281Y89910D01*
X106291Y89821D01*
X106297Y89732D01*
X106299Y89643D01*
X106297Y89554D01*
X106291Y89465D01*
X106281Y89376D01*
X106268Y89288D01*
X106251Y89200D01*
X106229Y89113D01*
X106204Y89028D01*
X106176Y88943D01*
X106143Y88860D01*
X106107Y88778D01*
X106068Y88698D01*
X106025Y88620D01*
X105979Y88544D01*
X105929Y88469D01*
X105876Y88397D01*
X105820Y88328D01*
X105761Y88261D01*
X105700Y88196D01*
X105635Y88135D01*
X105568Y88076D01*
X105499Y88020D01*
X105427Y87967D01*
X105352Y87917D01*
X105276Y87871D01*
X105198Y87828D01*
X105118Y87789D01*
X105036Y87753D01*
X104953Y87720D01*
X104868Y87692D01*
X104783Y87667D01*
X104696Y87645D01*
X104608Y87628D01*
X104520Y87615D01*
X104431Y87605D01*
X104342Y87599D01*
X104253Y87597D01*
X106299Y99397D02*
X98933Y99397D01*
X106299Y98578D02*
X106299Y100215D01*
X98933Y100215D02*
X98933Y98578D01*
X98933Y103447D02*
X106299Y103447D01*
X106299Y107539D02*
X98933Y103447D01*
X98933Y107539D02*
X106299Y107539D01*
X130866Y66252D02*
X130866Y61341D01*
X128411Y63796D02*
X133322Y63796D01*
X127183Y69553D02*
X126365Y69553D01*
X126365Y73645D01*
X133731Y71599D01*
X133731Y76515D02*
X133322Y76515D01*
X133322Y76924D01*
X133731Y76924D01*
X133731Y76515D01*
X133731Y79794D02*
X133731Y82250D01*
X133729Y82328D01*
X133724Y82406D01*
X133714Y82483D01*
X133701Y82560D01*
X133685Y82636D01*
X133665Y82711D01*
X133641Y82785D01*
X133614Y82858D01*
X133583Y82930D01*
X133549Y83000D01*
X133512Y83069D01*
X133471Y83135D01*
X133427Y83200D01*
X133381Y83262D01*
X133331Y83322D01*
X133279Y83380D01*
X133224Y83435D01*
X133166Y83487D01*
X133106Y83537D01*
X133044Y83583D01*
X132979Y83627D01*
X132913Y83668D01*
X132844Y83705D01*
X132774Y83739D01*
X132702Y83770D01*
X132629Y83797D01*
X132555Y83821D01*
X132480Y83841D01*
X132404Y83857D01*
X132327Y83870D01*
X132250Y83880D01*
X132172Y83885D01*
X132094Y83887D01*
X131276Y83887D01*
X131196Y83885D01*
X131116Y83879D01*
X131036Y83869D01*
X130957Y83856D01*
X130878Y83838D01*
X130801Y83817D01*
X130725Y83791D01*
X130650Y83762D01*
X130576Y83730D01*
X130504Y83694D01*
X130434Y83654D01*
X130367Y83611D01*
X130301Y83565D01*
X130238Y83515D01*
X130177Y83463D01*
X130118Y83408D01*
X130063Y83349D01*
X130011Y83289D01*
X129961Y83225D01*
X129915Y83159D01*
X129872Y83092D01*
X129832Y83022D01*
X129796Y82950D01*
X129764Y82876D01*
X129735Y82802D01*
X129709Y82725D01*
X129688Y82648D01*
X129670Y82569D01*
X129657Y82490D01*
X129647Y82410D01*
X129641Y82330D01*
X129639Y82250D01*
X129639Y79794D01*
X126365Y79794D01*
X126365Y83887D01*
X126365Y86700D02*
X133731Y89156D01*
X126365Y91611D01*
X154023Y65433D02*
X154023Y64206D01*
X154023Y65433D02*
X158115Y65433D01*
X158115Y62978D01*
X158113Y62900D01*
X158108Y62822D01*
X158098Y62745D01*
X158085Y62668D01*
X158069Y62592D01*
X158049Y62517D01*
X158025Y62443D01*
X157998Y62370D01*
X157967Y62298D01*
X157933Y62228D01*
X157896Y62160D01*
X157855Y62093D01*
X157811Y62028D01*
X157765Y61966D01*
X157715Y61906D01*
X157663Y61848D01*
X157608Y61793D01*
X157550Y61741D01*
X157490Y61691D01*
X157428Y61645D01*
X157363Y61601D01*
X157297Y61560D01*
X157228Y61523D01*
X157158Y61489D01*
X157086Y61458D01*
X157013Y61431D01*
X156939Y61407D01*
X156864Y61387D01*
X156788Y61371D01*
X156711Y61358D01*
X156634Y61348D01*
X156556Y61343D01*
X156478Y61341D01*
X152386Y61341D01*
X152306Y61343D01*
X152226Y61349D01*
X152146Y61359D01*
X152067Y61372D01*
X151988Y61390D01*
X151911Y61411D01*
X151835Y61437D01*
X151760Y61466D01*
X151686Y61498D01*
X151614Y61534D01*
X151544Y61574D01*
X151477Y61617D01*
X151411Y61663D01*
X151348Y61713D01*
X151287Y61765D01*
X151228Y61820D01*
X151173Y61879D01*
X151121Y61939D01*
X151071Y62003D01*
X151025Y62068D01*
X150982Y62136D01*
X150942Y62206D01*
X150906Y62278D01*
X150874Y62352D01*
X150845Y62426D01*
X150820Y62503D01*
X150798Y62580D01*
X150780Y62659D01*
X150767Y62738D01*
X150757Y62817D01*
X150751Y62898D01*
X150749Y62978D01*
X150749Y65433D01*
X150749Y69144D02*
X158115Y69144D01*
X158115Y73236D02*
X150749Y69144D01*
X150749Y73236D02*
X158115Y73236D01*
X158115Y76947D02*
X150749Y76947D01*
X150749Y78993D01*
X150751Y79082D01*
X150757Y79171D01*
X150767Y79260D01*
X150780Y79348D01*
X150797Y79436D01*
X150819Y79523D01*
X150844Y79608D01*
X150872Y79693D01*
X150905Y79776D01*
X150941Y79858D01*
X150980Y79938D01*
X151023Y80016D01*
X151069Y80092D01*
X151119Y80167D01*
X151172Y80239D01*
X151228Y80308D01*
X151287Y80375D01*
X151348Y80440D01*
X151413Y80501D01*
X151480Y80560D01*
X151549Y80616D01*
X151621Y80669D01*
X151696Y80719D01*
X151772Y80765D01*
X151850Y80808D01*
X151930Y80847D01*
X152012Y80883D01*
X152095Y80916D01*
X152180Y80944D01*
X152265Y80969D01*
X152352Y80991D01*
X152440Y81008D01*
X152528Y81021D01*
X152617Y81031D01*
X152706Y81037D01*
X152795Y81039D01*
X156069Y81039D01*
X156158Y81037D01*
X156247Y81031D01*
X156336Y81021D01*
X156424Y81008D01*
X156512Y80991D01*
X156599Y80969D01*
X156684Y80944D01*
X156769Y80916D01*
X156852Y80883D01*
X156934Y80847D01*
X157014Y80808D01*
X157092Y80765D01*
X157168Y80719D01*
X157243Y80669D01*
X157315Y80616D01*
X157384Y80560D01*
X157451Y80501D01*
X157516Y80440D01*
X157577Y80375D01*
X157636Y80308D01*
X157692Y80239D01*
X157745Y80167D01*
X157795Y80092D01*
X157841Y80016D01*
X157884Y79938D01*
X157923Y79858D01*
X157959Y79776D01*
X157992Y79693D01*
X158020Y79608D01*
X158045Y79523D01*
X158067Y79436D01*
X158084Y79348D01*
X158097Y79260D01*
X158107Y79171D01*
X158113Y79082D01*
X158115Y78993D01*
X158115Y76947D01*
D11*
X861350Y315832D02*
X872656Y315832D01*
X949982Y303345D02*
X949982Y380291D01*
X872656Y368816D02*
X861181Y368816D01*
X949936Y380233D02*
X949936Y380232D01*
X949936Y303402D01*
X936439Y314304D02*
X908925Y312227D01*
X936439Y314304D02*
X936546Y314315D01*
X936652Y314328D01*
X936757Y314346D01*
X936862Y314368D01*
X936966Y314393D01*
X937069Y314422D01*
X937171Y314455D01*
X937271Y314491D01*
X937370Y314532D01*
X937468Y314575D01*
X937564Y314622D01*
X937658Y314673D01*
X937751Y314727D01*
X937841Y314784D01*
X937929Y314845D01*
X938015Y314909D01*
X938098Y314976D01*
X938179Y315045D01*
X938258Y315118D01*
X938334Y315194D01*
X938407Y315272D01*
X938477Y315353D01*
X938544Y315436D01*
X938608Y315522D01*
X938669Y315609D01*
X938726Y315700D01*
X938781Y315792D01*
X938832Y315886D01*
X938879Y315982D01*
X938923Y316079D01*
X938964Y316178D01*
X939001Y316278D01*
X939034Y316380D01*
X939034Y316381D02*
X939099Y316603D01*
X939159Y316827D01*
X939214Y317052D01*
X939263Y317279D01*
X939307Y317506D01*
X939346Y317735D01*
X939379Y317964D01*
X939406Y318195D01*
X939428Y318425D01*
X939445Y318657D01*
X939456Y318888D01*
X939461Y319120D01*
X939461Y319352D01*
X939456Y319584D01*
X939445Y319815D01*
X939428Y320047D01*
X939406Y320277D01*
X939379Y320508D01*
X939346Y320737D01*
X939307Y320966D01*
X939263Y321193D01*
X939214Y321420D01*
X939159Y321645D01*
X939099Y321869D01*
X939034Y322091D01*
X939001Y322193D01*
X938964Y322293D01*
X938923Y322392D01*
X938879Y322489D01*
X938832Y322585D01*
X938781Y322679D01*
X938726Y322771D01*
X938669Y322862D01*
X938608Y322949D01*
X938544Y323035D01*
X938477Y323118D01*
X938407Y323199D01*
X938334Y323277D01*
X938258Y323353D01*
X938179Y323426D01*
X938098Y323495D01*
X938015Y323562D01*
X937929Y323626D01*
X937841Y323687D01*
X937751Y323744D01*
X937658Y323798D01*
X937564Y323849D01*
X937468Y323896D01*
X937370Y323939D01*
X937271Y323980D01*
X937171Y324016D01*
X937069Y324049D01*
X936966Y324078D01*
X936862Y324103D01*
X936757Y324125D01*
X936652Y324143D01*
X936546Y324156D01*
X936439Y324167D01*
X908925Y326763D01*
X908925Y324686D01*
X932805Y322091D01*
X932805Y316899D01*
X908925Y314304D01*
X908925Y312227D01*
X895946Y331435D02*
X936438Y329359D01*
X895946Y331435D02*
X895854Y331442D01*
X895763Y331453D01*
X895672Y331467D01*
X895582Y331486D01*
X895493Y331508D01*
X895405Y331534D01*
X895318Y331563D01*
X895232Y331596D01*
X895148Y331633D01*
X895066Y331673D01*
X894985Y331716D01*
X894906Y331763D01*
X894829Y331813D01*
X894754Y331866D01*
X894681Y331923D01*
X894611Y331982D01*
X894544Y332044D01*
X894479Y332109D01*
X894416Y332177D01*
X894357Y332247D01*
X894301Y332320D01*
X894248Y332394D01*
X894198Y332472D01*
X894151Y332551D01*
X894107Y332631D01*
X894067Y332714D01*
X894031Y332798D01*
X893998Y332884D01*
X893968Y332971D01*
X893943Y333059D01*
X893921Y333149D01*
X893902Y333239D01*
X893888Y333329D01*
X893877Y333420D01*
X893870Y333512D01*
X936439Y329359D02*
X936527Y329361D01*
X936615Y329366D01*
X936703Y329376D01*
X936790Y329389D01*
X936876Y329406D01*
X936962Y329426D01*
X937047Y329450D01*
X937131Y329478D01*
X937213Y329509D01*
X937294Y329543D01*
X937374Y329581D01*
X937451Y329623D01*
X937527Y329667D01*
X937602Y329715D01*
X937673Y329766D01*
X937743Y329820D01*
X937811Y329877D01*
X937875Y329936D01*
X937938Y329999D01*
X937997Y330063D01*
X938054Y330131D01*
X938108Y330201D01*
X938159Y330272D01*
X938207Y330347D01*
X938251Y330423D01*
X938293Y330500D01*
X938331Y330580D01*
X938365Y330661D01*
X938396Y330743D01*
X938424Y330827D01*
X938448Y330912D01*
X938468Y330998D01*
X938485Y331084D01*
X938498Y331171D01*
X938508Y331259D01*
X938513Y331347D01*
X938515Y331435D01*
X938515Y331436D01*
X938513Y331524D01*
X938508Y331612D01*
X938498Y331700D01*
X938485Y331787D01*
X938468Y331873D01*
X938448Y331959D01*
X938424Y332044D01*
X938396Y332128D01*
X938365Y332210D01*
X938331Y332291D01*
X938293Y332371D01*
X938251Y332448D01*
X938207Y332524D01*
X938159Y332599D01*
X938108Y332670D01*
X938054Y332740D01*
X937997Y332808D01*
X937938Y332872D01*
X937875Y332935D01*
X937811Y332994D01*
X937743Y333051D01*
X937673Y333105D01*
X937602Y333156D01*
X937527Y333204D01*
X937451Y333248D01*
X937374Y333290D01*
X937294Y333328D01*
X937213Y333362D01*
X937131Y333393D01*
X937047Y333421D01*
X936962Y333445D01*
X936876Y333465D01*
X936790Y333482D01*
X936703Y333495D01*
X936615Y333505D01*
X936527Y333510D01*
X936439Y333512D01*
X902176Y335588D01*
X908925Y371407D02*
X936439Y369330D01*
X936546Y369319D01*
X936652Y369306D01*
X936757Y369288D01*
X936862Y369266D01*
X936966Y369241D01*
X937069Y369212D01*
X937171Y369179D01*
X937271Y369143D01*
X937370Y369102D01*
X937468Y369059D01*
X937564Y369012D01*
X937658Y368961D01*
X937751Y368907D01*
X937841Y368850D01*
X937929Y368789D01*
X938015Y368725D01*
X938098Y368658D01*
X938179Y368589D01*
X938258Y368516D01*
X938334Y368440D01*
X938407Y368362D01*
X938477Y368281D01*
X938544Y368198D01*
X938608Y368112D01*
X938669Y368025D01*
X938726Y367934D01*
X938781Y367842D01*
X938832Y367748D01*
X938879Y367652D01*
X938923Y367555D01*
X938964Y367456D01*
X939001Y367356D01*
X939034Y367254D01*
X939099Y367032D01*
X939159Y366808D01*
X939214Y366583D01*
X939263Y366356D01*
X939307Y366129D01*
X939346Y365900D01*
X939379Y365671D01*
X939406Y365440D01*
X939428Y365210D01*
X939445Y364978D01*
X939456Y364747D01*
X939461Y364515D01*
X939461Y364283D01*
X939456Y364051D01*
X939445Y363820D01*
X939428Y363588D01*
X939406Y363358D01*
X939379Y363127D01*
X939346Y362898D01*
X939307Y362669D01*
X939263Y362442D01*
X939214Y362215D01*
X939159Y361990D01*
X939099Y361766D01*
X939034Y361544D01*
X939034Y361543D02*
X939001Y361441D01*
X938964Y361341D01*
X938923Y361242D01*
X938879Y361145D01*
X938832Y361049D01*
X938781Y360955D01*
X938726Y360863D01*
X938669Y360772D01*
X938608Y360685D01*
X938544Y360599D01*
X938477Y360516D01*
X938407Y360435D01*
X938334Y360357D01*
X938258Y360281D01*
X938179Y360208D01*
X938098Y360139D01*
X938015Y360072D01*
X937929Y360008D01*
X937841Y359947D01*
X937751Y359890D01*
X937658Y359836D01*
X937564Y359785D01*
X937468Y359738D01*
X937370Y359695D01*
X937271Y359654D01*
X937171Y359618D01*
X937069Y359585D01*
X936966Y359556D01*
X936862Y359531D01*
X936757Y359509D01*
X936652Y359491D01*
X936546Y359478D01*
X936439Y359467D01*
X908925Y356871D01*
X908925Y358948D01*
X932805Y361543D01*
X932805Y366735D01*
X908925Y369330D01*
X908925Y371407D01*
X895946Y352199D02*
X936438Y354275D01*
X895946Y352199D02*
X895854Y352192D01*
X895763Y352181D01*
X895673Y352166D01*
X895583Y352148D01*
X895493Y352126D01*
X895405Y352100D01*
X895318Y352071D01*
X895233Y352038D01*
X895148Y352001D01*
X895066Y351961D01*
X894985Y351917D01*
X894906Y351871D01*
X894829Y351821D01*
X894754Y351767D01*
X894681Y351711D01*
X894611Y351652D01*
X894544Y351589D01*
X894479Y351524D01*
X894417Y351457D01*
X894357Y351387D01*
X894301Y351314D01*
X894248Y351239D01*
X894198Y351162D01*
X894151Y351083D01*
X894108Y351002D01*
X894068Y350920D01*
X894031Y350835D01*
X893998Y350750D01*
X893969Y350663D01*
X893943Y350575D01*
X893921Y350485D01*
X893902Y350395D01*
X893888Y350305D01*
X893877Y350214D01*
X893870Y350122D01*
X893870Y333511D01*
X936439Y354275D02*
X936527Y354273D01*
X936615Y354268D01*
X936703Y354258D01*
X936790Y354245D01*
X936876Y354228D01*
X936962Y354208D01*
X937047Y354184D01*
X937131Y354156D01*
X937213Y354125D01*
X937294Y354091D01*
X937374Y354053D01*
X937451Y354011D01*
X937527Y353967D01*
X937602Y353919D01*
X937673Y353868D01*
X937743Y353814D01*
X937811Y353757D01*
X937875Y353698D01*
X937938Y353635D01*
X937997Y353571D01*
X938054Y353503D01*
X938108Y353433D01*
X938159Y353362D01*
X938207Y353287D01*
X938251Y353211D01*
X938293Y353134D01*
X938331Y353054D01*
X938365Y352973D01*
X938396Y352891D01*
X938424Y352807D01*
X938448Y352722D01*
X938468Y352636D01*
X938485Y352550D01*
X938498Y352463D01*
X938508Y352375D01*
X938513Y352287D01*
X938515Y352199D01*
X938515Y352198D02*
X938513Y352110D01*
X938508Y352022D01*
X938498Y351934D01*
X938485Y351847D01*
X938468Y351761D01*
X938448Y351675D01*
X938424Y351590D01*
X938396Y351506D01*
X938365Y351424D01*
X938331Y351343D01*
X938293Y351263D01*
X938251Y351186D01*
X938207Y351110D01*
X938159Y351035D01*
X938108Y350964D01*
X938054Y350894D01*
X937997Y350826D01*
X937938Y350762D01*
X937875Y350699D01*
X937811Y350640D01*
X937743Y350583D01*
X937673Y350529D01*
X937602Y350478D01*
X937527Y350430D01*
X937451Y350386D01*
X937374Y350344D01*
X937294Y350306D01*
X937213Y350272D01*
X937131Y350241D01*
X937047Y350213D01*
X936962Y350189D01*
X936876Y350169D01*
X936790Y350152D01*
X936703Y350139D01*
X936615Y350129D01*
X936527Y350124D01*
X936439Y350122D01*
X902176Y348046D01*
X902176Y335586D01*
X934900Y380232D02*
X949936Y380232D01*
X949936Y303402D02*
X934901Y303403D01*
X906785Y380290D02*
X879912Y380290D01*
X880923Y303345D02*
X906277Y303346D01*
X861350Y308575D02*
X861350Y315832D01*
X872656Y315832D02*
X872655Y308575D01*
X872656Y368817D02*
X872656Y375060D01*
X861181Y375142D02*
X861181Y368816D01*
X835340Y312783D02*
X823656Y308888D01*
X823656Y316677D02*
X835340Y312783D01*
X835340Y323530D02*
X835340Y326127D01*
X835340Y323530D02*
X835338Y323431D01*
X835332Y323331D01*
X835323Y323232D01*
X835310Y323134D01*
X835293Y323036D01*
X835272Y322938D01*
X835247Y322842D01*
X835219Y322747D01*
X835187Y322653D01*
X835152Y322560D01*
X835113Y322468D01*
X835070Y322378D01*
X835025Y322290D01*
X834975Y322203D01*
X834923Y322119D01*
X834867Y322036D01*
X834809Y321956D01*
X834747Y321878D01*
X834682Y321803D01*
X834614Y321730D01*
X834544Y321660D01*
X834471Y321592D01*
X834396Y321527D01*
X834318Y321465D01*
X834238Y321407D01*
X834155Y321351D01*
X834071Y321299D01*
X833984Y321249D01*
X833896Y321204D01*
X833806Y321161D01*
X833714Y321122D01*
X833621Y321087D01*
X833527Y321055D01*
X833432Y321027D01*
X833336Y321002D01*
X833238Y320981D01*
X833140Y320964D01*
X833042Y320951D01*
X832943Y320942D01*
X832843Y320936D01*
X832744Y320934D01*
X826252Y320934D01*
X826252Y320933D02*
X826153Y320935D01*
X826053Y320941D01*
X825954Y320950D01*
X825856Y320963D01*
X825758Y320981D01*
X825660Y321001D01*
X825564Y321026D01*
X825468Y321054D01*
X825374Y321086D01*
X825281Y321121D01*
X825190Y321160D01*
X825100Y321203D01*
X825011Y321248D01*
X824925Y321298D01*
X824840Y321350D01*
X824758Y321406D01*
X824678Y321465D01*
X824600Y321526D01*
X824524Y321591D01*
X824451Y321659D01*
X824381Y321729D01*
X824313Y321802D01*
X824248Y321878D01*
X824187Y321956D01*
X824128Y322036D01*
X824072Y322118D01*
X824020Y322203D01*
X823971Y322289D01*
X823925Y322378D01*
X823882Y322468D01*
X823843Y322559D01*
X823808Y322652D01*
X823776Y322746D01*
X823748Y322842D01*
X823723Y322938D01*
X823703Y323036D01*
X823685Y323134D01*
X823672Y323232D01*
X823663Y323331D01*
X823657Y323430D01*
X823655Y323530D01*
X823656Y323530D02*
X823656Y326127D01*
X835340Y333055D02*
X835340Y335652D01*
X835340Y333055D02*
X835338Y332956D01*
X835332Y332856D01*
X835323Y332757D01*
X835310Y332659D01*
X835293Y332561D01*
X835272Y332463D01*
X835247Y332367D01*
X835219Y332272D01*
X835187Y332178D01*
X835152Y332085D01*
X835113Y331993D01*
X835070Y331903D01*
X835025Y331815D01*
X834975Y331728D01*
X834923Y331644D01*
X834867Y331561D01*
X834809Y331481D01*
X834747Y331403D01*
X834682Y331328D01*
X834614Y331255D01*
X834544Y331185D01*
X834471Y331117D01*
X834396Y331052D01*
X834318Y330990D01*
X834238Y330932D01*
X834155Y330876D01*
X834071Y330824D01*
X833984Y330774D01*
X833896Y330729D01*
X833806Y330686D01*
X833714Y330647D01*
X833621Y330612D01*
X833527Y330580D01*
X833432Y330552D01*
X833336Y330527D01*
X833238Y330506D01*
X833140Y330489D01*
X833042Y330476D01*
X832943Y330467D01*
X832843Y330461D01*
X832744Y330459D01*
X826252Y330459D01*
X826252Y330458D02*
X826153Y330460D01*
X826053Y330466D01*
X825954Y330475D01*
X825856Y330488D01*
X825758Y330506D01*
X825660Y330526D01*
X825564Y330551D01*
X825468Y330579D01*
X825374Y330611D01*
X825281Y330646D01*
X825190Y330685D01*
X825100Y330728D01*
X825011Y330773D01*
X824925Y330823D01*
X824840Y330875D01*
X824758Y330931D01*
X824678Y330990D01*
X824600Y331051D01*
X824524Y331116D01*
X824451Y331184D01*
X824381Y331254D01*
X824313Y331327D01*
X824248Y331403D01*
X824187Y331481D01*
X824128Y331561D01*
X824072Y331643D01*
X824020Y331728D01*
X823971Y331814D01*
X823925Y331903D01*
X823882Y331993D01*
X823843Y332084D01*
X823808Y332177D01*
X823776Y332271D01*
X823748Y332367D01*
X823723Y332463D01*
X823703Y332561D01*
X823685Y332659D01*
X823672Y332757D01*
X823663Y332856D01*
X823657Y332955D01*
X823655Y333055D01*
X823656Y333055D02*
X823656Y335652D01*
X836638Y339523D02*
X836638Y344716D01*
X835340Y349161D02*
X835340Y353056D01*
X835338Y353155D01*
X835332Y353255D01*
X835323Y353354D01*
X835310Y353452D01*
X835293Y353550D01*
X835272Y353648D01*
X835247Y353744D01*
X835219Y353839D01*
X835187Y353933D01*
X835152Y354026D01*
X835113Y354118D01*
X835070Y354208D01*
X835025Y354296D01*
X834975Y354383D01*
X834923Y354467D01*
X834867Y354550D01*
X834809Y354630D01*
X834747Y354708D01*
X834682Y354783D01*
X834614Y354856D01*
X834544Y354926D01*
X834471Y354994D01*
X834396Y355059D01*
X834318Y355121D01*
X834238Y355179D01*
X834155Y355235D01*
X834071Y355287D01*
X833984Y355337D01*
X833896Y355382D01*
X833806Y355425D01*
X833714Y355464D01*
X833621Y355499D01*
X833527Y355531D01*
X833432Y355559D01*
X833336Y355584D01*
X833238Y355605D01*
X833140Y355622D01*
X833042Y355635D01*
X832943Y355644D01*
X832843Y355650D01*
X832744Y355652D01*
X831445Y355652D01*
X831346Y355650D01*
X831246Y355644D01*
X831147Y355635D01*
X831049Y355622D01*
X830951Y355605D01*
X830853Y355584D01*
X830757Y355559D01*
X830662Y355531D01*
X830568Y355499D01*
X830475Y355464D01*
X830383Y355425D01*
X830293Y355382D01*
X830205Y355337D01*
X830118Y355287D01*
X830034Y355235D01*
X829951Y355179D01*
X829871Y355121D01*
X829793Y355059D01*
X829718Y354994D01*
X829645Y354926D01*
X829575Y354856D01*
X829507Y354783D01*
X829442Y354708D01*
X829380Y354630D01*
X829322Y354550D01*
X829266Y354467D01*
X829214Y354383D01*
X829164Y354296D01*
X829119Y354208D01*
X829076Y354118D01*
X829037Y354026D01*
X829002Y353933D01*
X828970Y353839D01*
X828942Y353744D01*
X828917Y353648D01*
X828896Y353550D01*
X828879Y353452D01*
X828866Y353354D01*
X828857Y353255D01*
X828851Y353155D01*
X828849Y353056D01*
X828849Y349161D01*
X823656Y349161D01*
X823656Y355652D01*
X823656Y359942D02*
X835340Y363837D01*
X823656Y367731D01*
D12*
X209550Y102870D02*
X196850Y102870D01*
X209550Y102870D02*
X215900Y96520D01*
X215900Y83820D02*
X209550Y77470D01*
X215900Y96520D02*
X222250Y102870D01*
X234950Y102870D01*
X241300Y96520D01*
X241300Y83820D02*
X234950Y77470D01*
X222250Y77470D01*
X215900Y83820D01*
X190500Y83820D02*
X190500Y96520D01*
X196850Y102870D01*
X190500Y83820D02*
X196850Y77470D01*
X209550Y77470D01*
X241300Y96520D02*
X247650Y102870D01*
X260350Y102870D01*
X266700Y96520D01*
X266700Y83820D02*
X260350Y77470D01*
X247650Y77470D01*
X241300Y83820D01*
X273050Y102870D02*
X285750Y102870D01*
X292100Y96520D01*
X292100Y83820D02*
X285750Y77470D01*
X266700Y96520D02*
X273050Y102870D01*
X266700Y83820D02*
X273050Y77470D01*
X285750Y77470D01*
X298450Y102870D02*
X311150Y102870D01*
X317500Y96520D01*
X317500Y83820D02*
X311150Y77470D01*
X317500Y96520D02*
X323850Y102870D01*
X336550Y102870D01*
X342900Y96520D01*
X342900Y83820D02*
X336550Y77470D01*
X323850Y77470D01*
X317500Y83820D01*
X298450Y102870D02*
X292100Y96520D01*
X292100Y83820D02*
X298450Y77470D01*
X311150Y77470D01*
X342900Y96520D02*
X349250Y102870D01*
X361950Y102870D01*
X368300Y96520D01*
X368300Y83820D02*
X361950Y77470D01*
X349250Y77470D01*
X342900Y83820D01*
X374650Y102870D02*
X387350Y102870D01*
X393700Y96520D01*
X393700Y83820D02*
X387350Y77470D01*
X368300Y96520D02*
X374650Y102870D01*
X368300Y83820D02*
X374650Y77470D01*
X387350Y77470D01*
X400050Y102870D02*
X412750Y102870D01*
X419100Y96520D01*
X419100Y83820D02*
X412750Y77470D01*
X419100Y96520D02*
X425450Y102870D01*
X438150Y102870D01*
X444500Y96520D01*
X444500Y83820D02*
X438150Y77470D01*
X425450Y77470D01*
X419100Y83820D01*
X400050Y102870D02*
X393700Y96520D01*
X393700Y83820D02*
X400050Y77470D01*
X412750Y77470D01*
X444500Y83820D02*
X444500Y96520D01*
D13*
X201930Y73025D02*
X198755Y70485D01*
X201930Y73025D02*
X201930Y61595D01*
X198755Y61595D02*
X205105Y61595D01*
X426085Y116205D02*
X429260Y118745D01*
X429260Y107315D01*
X426085Y107315D02*
X432435Y107315D01*
X437515Y113030D02*
X437518Y113255D01*
X437526Y113480D01*
X437539Y113704D01*
X437558Y113928D01*
X437582Y114152D01*
X437611Y114375D01*
X437646Y114597D01*
X437686Y114818D01*
X437732Y115038D01*
X437782Y115257D01*
X437838Y115475D01*
X437899Y115692D01*
X437965Y115907D01*
X438036Y116120D01*
X438113Y116331D01*
X438194Y116541D01*
X438280Y116749D01*
X438371Y116954D01*
X438467Y117157D01*
X438467Y117158D02*
X438499Y117246D01*
X438535Y117333D01*
X438574Y117419D01*
X438617Y117503D01*
X438663Y117585D01*
X438712Y117665D01*
X438764Y117743D01*
X438820Y117819D01*
X438878Y117893D01*
X438940Y117964D01*
X439004Y118033D01*
X439071Y118099D01*
X439140Y118162D01*
X439212Y118223D01*
X439286Y118281D01*
X439363Y118335D01*
X439441Y118387D01*
X439522Y118435D01*
X439604Y118480D01*
X439689Y118522D01*
X439775Y118560D01*
X439862Y118595D01*
X439950Y118627D01*
X440040Y118654D01*
X440131Y118679D01*
X440223Y118699D01*
X440315Y118716D01*
X440409Y118729D01*
X440502Y118738D01*
X440596Y118744D01*
X440690Y118746D01*
X440784Y118744D01*
X440878Y118738D01*
X440971Y118729D01*
X441065Y118716D01*
X441157Y118699D01*
X441249Y118679D01*
X441340Y118654D01*
X441430Y118627D01*
X441518Y118595D01*
X441605Y118560D01*
X441691Y118522D01*
X441776Y118480D01*
X441858Y118435D01*
X441939Y118387D01*
X442017Y118335D01*
X442094Y118281D01*
X442168Y118223D01*
X442240Y118162D01*
X442309Y118099D01*
X442376Y118033D01*
X442440Y117964D01*
X442502Y117893D01*
X442560Y117819D01*
X442616Y117743D01*
X442668Y117665D01*
X442717Y117585D01*
X442763Y117503D01*
X442806Y117419D01*
X442845Y117333D01*
X442881Y117246D01*
X442913Y117158D01*
X442913Y117157D02*
X443009Y116954D01*
X443100Y116749D01*
X443186Y116541D01*
X443267Y116331D01*
X443344Y116120D01*
X443415Y115907D01*
X443481Y115692D01*
X443542Y115475D01*
X443598Y115257D01*
X443648Y115038D01*
X443694Y114818D01*
X443734Y114597D01*
X443769Y114375D01*
X443798Y114152D01*
X443822Y113928D01*
X443841Y113704D01*
X443854Y113480D01*
X443862Y113255D01*
X443865Y113030D01*
X437515Y113030D02*
X437518Y112805D01*
X437526Y112580D01*
X437539Y112356D01*
X437558Y112132D01*
X437582Y111908D01*
X437611Y111685D01*
X437646Y111463D01*
X437686Y111242D01*
X437732Y111022D01*
X437782Y110803D01*
X437838Y110585D01*
X437899Y110368D01*
X437965Y110153D01*
X438036Y109940D01*
X438113Y109729D01*
X438194Y109519D01*
X438280Y109311D01*
X438371Y109106D01*
X438467Y108903D01*
X438499Y108815D01*
X438535Y108728D01*
X438574Y108642D01*
X438617Y108558D01*
X438663Y108476D01*
X438712Y108396D01*
X438764Y108318D01*
X438820Y108242D01*
X438878Y108168D01*
X438940Y108097D01*
X439004Y108028D01*
X439071Y107962D01*
X439140Y107899D01*
X439212Y107838D01*
X439286Y107780D01*
X439363Y107726D01*
X439441Y107674D01*
X439522Y107626D01*
X439604Y107581D01*
X439689Y107539D01*
X439775Y107501D01*
X439862Y107466D01*
X439950Y107434D01*
X440040Y107407D01*
X440131Y107382D01*
X440223Y107362D01*
X440315Y107345D01*
X440409Y107332D01*
X440502Y107323D01*
X440596Y107317D01*
X440690Y107315D01*
X442913Y108903D02*
X443009Y109106D01*
X443100Y109311D01*
X443186Y109519D01*
X443267Y109729D01*
X443344Y109940D01*
X443415Y110153D01*
X443481Y110368D01*
X443542Y110585D01*
X443598Y110803D01*
X443648Y111022D01*
X443694Y111242D01*
X443734Y111463D01*
X443769Y111685D01*
X443798Y111908D01*
X443822Y112132D01*
X443841Y112356D01*
X443854Y112580D01*
X443862Y112805D01*
X443865Y113030D01*
X442913Y108903D02*
X442881Y108815D01*
X442845Y108728D01*
X442806Y108642D01*
X442763Y108558D01*
X442717Y108476D01*
X442668Y108396D01*
X442616Y108318D01*
X442560Y108242D01*
X442502Y108168D01*
X442440Y108097D01*
X442376Y108028D01*
X442309Y107962D01*
X442240Y107899D01*
X442168Y107838D01*
X442094Y107780D01*
X442017Y107726D01*
X441939Y107674D01*
X441858Y107626D01*
X441776Y107581D01*
X441691Y107539D01*
X441605Y107501D01*
X441518Y107466D01*
X441430Y107434D01*
X441340Y107407D01*
X441249Y107382D01*
X441157Y107362D01*
X441065Y107345D01*
X440971Y107332D01*
X440878Y107323D01*
X440784Y107317D01*
X440690Y107315D01*
X438150Y109855D02*
X443230Y116205D01*
X422783Y73025D02*
X426593Y61595D01*
X430403Y73025D01*
X438341Y73026D02*
X438445Y73024D01*
X438550Y73018D01*
X438654Y73009D01*
X438757Y72996D01*
X438860Y72978D01*
X438962Y72958D01*
X439064Y72933D01*
X439164Y72905D01*
X439264Y72873D01*
X439362Y72837D01*
X439459Y72798D01*
X439554Y72756D01*
X439648Y72710D01*
X439740Y72660D01*
X439830Y72608D01*
X439918Y72552D01*
X440004Y72492D01*
X440088Y72430D01*
X440169Y72365D01*
X440248Y72297D01*
X440325Y72225D01*
X440398Y72152D01*
X440470Y72075D01*
X440538Y71996D01*
X440603Y71915D01*
X440665Y71831D01*
X440725Y71745D01*
X440781Y71657D01*
X440833Y71567D01*
X440883Y71475D01*
X440929Y71381D01*
X440971Y71286D01*
X441010Y71189D01*
X441046Y71091D01*
X441078Y70991D01*
X441106Y70891D01*
X441131Y70789D01*
X441151Y70687D01*
X441169Y70584D01*
X441182Y70481D01*
X441191Y70377D01*
X441197Y70272D01*
X441199Y70168D01*
X438341Y73025D02*
X438223Y73023D01*
X438104Y73017D01*
X437986Y73008D01*
X437869Y72995D01*
X437752Y72977D01*
X437635Y72957D01*
X437519Y72932D01*
X437404Y72904D01*
X437291Y72871D01*
X437178Y72836D01*
X437066Y72796D01*
X436956Y72754D01*
X436847Y72707D01*
X436739Y72657D01*
X436634Y72604D01*
X436530Y72547D01*
X436428Y72487D01*
X436328Y72424D01*
X436230Y72357D01*
X436134Y72288D01*
X436041Y72215D01*
X435950Y72139D01*
X435861Y72061D01*
X435775Y71979D01*
X435692Y71895D01*
X435611Y71809D01*
X435534Y71719D01*
X435459Y71628D01*
X435387Y71534D01*
X435318Y71437D01*
X435253Y71339D01*
X435190Y71238D01*
X435131Y71135D01*
X435075Y71031D01*
X435023Y70925D01*
X434974Y70817D01*
X434929Y70708D01*
X434887Y70597D01*
X434849Y70485D01*
X440246Y67946D02*
X440322Y68021D01*
X440397Y68100D01*
X440468Y68181D01*
X440537Y68265D01*
X440602Y68351D01*
X440664Y68439D01*
X440724Y68529D01*
X440780Y68621D01*
X440833Y68716D01*
X440882Y68812D01*
X440928Y68910D01*
X440971Y69009D01*
X441010Y69110D01*
X441045Y69212D01*
X441077Y69315D01*
X441105Y69419D01*
X441130Y69524D01*
X441151Y69631D01*
X441168Y69737D01*
X441181Y69844D01*
X441190Y69952D01*
X441196Y70060D01*
X441198Y70168D01*
X440246Y67945D02*
X434848Y61595D01*
X441198Y61595D01*
D12*
X107950Y52070D02*
X95250Y52070D01*
X107950Y52070D02*
X114300Y45720D01*
X114300Y33020D02*
X107950Y26670D01*
X114300Y45720D02*
X120650Y52070D01*
X133350Y52070D01*
X139700Y45720D01*
X139700Y33020D02*
X133350Y26670D01*
X120650Y26670D01*
X114300Y33020D01*
X88900Y33020D02*
X88900Y45720D01*
X95250Y52070D01*
X88900Y33020D02*
X95250Y26670D01*
X107950Y26670D01*
X139700Y45720D02*
X146050Y52070D01*
X158750Y52070D01*
X165100Y45720D01*
X165100Y33020D02*
X158750Y26670D01*
X146050Y26670D01*
X139700Y33020D01*
X165100Y33020D02*
X165100Y45720D01*
D13*
X80010Y45085D02*
X76835Y42545D01*
X80010Y45085D02*
X80010Y33655D01*
X76835Y33655D02*
X83185Y33655D01*
D12*
X840740Y588772D02*
X840740Y593852D01*
X835660Y593852D01*
X820420Y593852D02*
X815340Y593852D01*
X815340Y588772D01*
X815340Y573532D02*
X815340Y568452D01*
X820420Y568452D01*
X835660Y568452D02*
X840740Y568452D01*
X840740Y573532D01*
D13*
X813435Y600837D02*
X809625Y612267D01*
X817245Y612267D02*
X813435Y600837D01*
X822579Y600837D02*
X822579Y612267D01*
X821309Y600837D02*
X823849Y600837D01*
X823849Y612267D02*
X821309Y612267D01*
X828929Y612267D02*
X828929Y600837D01*
X835279Y600837D02*
X828929Y612267D01*
X835279Y612267D02*
X835279Y600837D01*
X840867Y605282D02*
X848487Y605282D01*
X844677Y601472D02*
X844677Y609092D01*
D12*
X916940Y593852D02*
X916940Y588772D01*
X916940Y593852D02*
X911860Y593852D01*
X896620Y593852D02*
X891540Y593852D01*
X891540Y588772D01*
X891540Y573532D02*
X891540Y568452D01*
X896620Y568452D01*
X911860Y568452D02*
X916940Y568452D01*
X916940Y573532D01*
D13*
X902335Y600837D02*
X898525Y612267D01*
X906145Y612267D02*
X902335Y600837D01*
X911479Y600837D02*
X911479Y612267D01*
X910209Y600837D02*
X912749Y600837D01*
X912749Y612267D02*
X910209Y612267D01*
X917829Y612267D02*
X917829Y600837D01*
X924179Y600837D02*
X917829Y612267D01*
X924179Y612267D02*
X924179Y600837D01*
X929767Y605282D02*
X937387Y605282D01*
D12*
X840740Y282448D02*
X840740Y277368D01*
X840740Y282448D02*
X835660Y282448D01*
X820420Y282448D02*
X815340Y282448D01*
X815340Y277368D01*
X815340Y262128D02*
X815340Y257048D01*
X820420Y257048D01*
X835660Y257048D02*
X840740Y257048D01*
X840740Y262128D01*
D13*
X803275Y250063D02*
X807085Y238633D01*
X810895Y250063D01*
X815340Y246888D02*
X815340Y241808D01*
X815340Y246888D02*
X815342Y246999D01*
X815348Y247109D01*
X815357Y247220D01*
X815371Y247330D01*
X815388Y247439D01*
X815409Y247548D01*
X815434Y247656D01*
X815463Y247763D01*
X815495Y247869D01*
X815531Y247974D01*
X815571Y248077D01*
X815614Y248179D01*
X815661Y248280D01*
X815712Y248379D01*
X815765Y248476D01*
X815822Y248570D01*
X815883Y248663D01*
X815946Y248754D01*
X816013Y248843D01*
X816083Y248929D01*
X816156Y249012D01*
X816231Y249094D01*
X816309Y249172D01*
X816391Y249247D01*
X816474Y249320D01*
X816560Y249390D01*
X816649Y249457D01*
X816740Y249520D01*
X816833Y249581D01*
X816928Y249638D01*
X817024Y249691D01*
X817123Y249742D01*
X817224Y249789D01*
X817326Y249832D01*
X817429Y249872D01*
X817534Y249908D01*
X817640Y249940D01*
X817747Y249969D01*
X817855Y249994D01*
X817964Y250015D01*
X818073Y250032D01*
X818183Y250046D01*
X818294Y250055D01*
X818404Y250061D01*
X818515Y250063D01*
X818626Y250061D01*
X818736Y250055D01*
X818847Y250046D01*
X818957Y250032D01*
X819066Y250015D01*
X819175Y249994D01*
X819283Y249969D01*
X819390Y249940D01*
X819496Y249908D01*
X819601Y249872D01*
X819704Y249832D01*
X819806Y249789D01*
X819907Y249742D01*
X820006Y249691D01*
X820103Y249638D01*
X820197Y249581D01*
X820290Y249520D01*
X820381Y249457D01*
X820470Y249390D01*
X820556Y249320D01*
X820639Y249247D01*
X820721Y249172D01*
X820799Y249094D01*
X820874Y249012D01*
X820947Y248929D01*
X821017Y248843D01*
X821084Y248754D01*
X821147Y248663D01*
X821208Y248570D01*
X821265Y248476D01*
X821318Y248379D01*
X821369Y248280D01*
X821416Y248179D01*
X821459Y248077D01*
X821499Y247974D01*
X821535Y247869D01*
X821567Y247763D01*
X821596Y247656D01*
X821621Y247548D01*
X821642Y247439D01*
X821659Y247330D01*
X821673Y247220D01*
X821682Y247109D01*
X821688Y246999D01*
X821690Y246888D01*
X821690Y241808D01*
X821688Y241697D01*
X821682Y241587D01*
X821673Y241476D01*
X821659Y241366D01*
X821642Y241257D01*
X821621Y241148D01*
X821596Y241040D01*
X821567Y240933D01*
X821535Y240827D01*
X821499Y240722D01*
X821459Y240619D01*
X821416Y240517D01*
X821369Y240416D01*
X821318Y240317D01*
X821265Y240220D01*
X821208Y240126D01*
X821147Y240033D01*
X821084Y239942D01*
X821017Y239853D01*
X820947Y239767D01*
X820874Y239684D01*
X820799Y239602D01*
X820721Y239524D01*
X820639Y239449D01*
X820556Y239376D01*
X820470Y239306D01*
X820381Y239239D01*
X820290Y239176D01*
X820197Y239115D01*
X820103Y239058D01*
X820006Y239005D01*
X819907Y238954D01*
X819806Y238907D01*
X819704Y238864D01*
X819601Y238824D01*
X819496Y238788D01*
X819390Y238756D01*
X819283Y238727D01*
X819175Y238702D01*
X819066Y238681D01*
X818957Y238664D01*
X818847Y238650D01*
X818736Y238641D01*
X818626Y238635D01*
X818515Y238633D01*
X818404Y238635D01*
X818294Y238641D01*
X818183Y238650D01*
X818073Y238664D01*
X817964Y238681D01*
X817855Y238702D01*
X817747Y238727D01*
X817640Y238756D01*
X817534Y238788D01*
X817429Y238824D01*
X817326Y238864D01*
X817224Y238907D01*
X817123Y238954D01*
X817024Y239005D01*
X816928Y239058D01*
X816833Y239115D01*
X816740Y239176D01*
X816649Y239239D01*
X816560Y239306D01*
X816474Y239376D01*
X816391Y239449D01*
X816309Y239524D01*
X816231Y239602D01*
X816156Y239684D01*
X816083Y239767D01*
X816013Y239853D01*
X815946Y239942D01*
X815883Y240033D01*
X815822Y240126D01*
X815765Y240221D01*
X815712Y240317D01*
X815661Y240416D01*
X815614Y240517D01*
X815571Y240619D01*
X815531Y240722D01*
X815495Y240827D01*
X815463Y240933D01*
X815434Y241040D01*
X815409Y241148D01*
X815388Y241257D01*
X815371Y241366D01*
X815357Y241476D01*
X815348Y241587D01*
X815342Y241697D01*
X815340Y241808D01*
X827151Y241808D02*
X827151Y250063D01*
X827151Y241808D02*
X827153Y241697D01*
X827159Y241587D01*
X827168Y241476D01*
X827182Y241366D01*
X827199Y241257D01*
X827220Y241148D01*
X827245Y241040D01*
X827274Y240933D01*
X827306Y240827D01*
X827342Y240722D01*
X827382Y240619D01*
X827425Y240517D01*
X827472Y240416D01*
X827523Y240317D01*
X827576Y240221D01*
X827633Y240126D01*
X827694Y240033D01*
X827757Y239942D01*
X827824Y239853D01*
X827894Y239767D01*
X827967Y239684D01*
X828042Y239602D01*
X828120Y239524D01*
X828202Y239449D01*
X828285Y239376D01*
X828371Y239306D01*
X828460Y239239D01*
X828551Y239176D01*
X828644Y239115D01*
X828739Y239058D01*
X828835Y239005D01*
X828934Y238954D01*
X829035Y238907D01*
X829137Y238864D01*
X829240Y238824D01*
X829345Y238788D01*
X829451Y238756D01*
X829558Y238727D01*
X829666Y238702D01*
X829775Y238681D01*
X829884Y238664D01*
X829994Y238650D01*
X830105Y238641D01*
X830215Y238635D01*
X830326Y238633D01*
X830437Y238635D01*
X830547Y238641D01*
X830658Y238650D01*
X830768Y238664D01*
X830877Y238681D01*
X830986Y238702D01*
X831094Y238727D01*
X831201Y238756D01*
X831307Y238788D01*
X831412Y238824D01*
X831515Y238864D01*
X831617Y238907D01*
X831718Y238954D01*
X831817Y239005D01*
X831914Y239058D01*
X832008Y239115D01*
X832101Y239176D01*
X832192Y239239D01*
X832281Y239306D01*
X832367Y239376D01*
X832450Y239449D01*
X832532Y239524D01*
X832610Y239602D01*
X832685Y239684D01*
X832758Y239767D01*
X832828Y239853D01*
X832895Y239942D01*
X832958Y240033D01*
X833019Y240126D01*
X833076Y240220D01*
X833129Y240317D01*
X833180Y240416D01*
X833227Y240517D01*
X833270Y240619D01*
X833310Y240722D01*
X833346Y240827D01*
X833378Y240933D01*
X833407Y241040D01*
X833432Y241148D01*
X833453Y241257D01*
X833470Y241366D01*
X833484Y241476D01*
X833493Y241587D01*
X833499Y241697D01*
X833501Y241808D01*
X833501Y250063D01*
X841375Y250063D02*
X841375Y238633D01*
X838200Y250063D02*
X844550Y250063D01*
X848995Y243078D02*
X856615Y243078D01*
X852805Y239268D02*
X852805Y246888D01*
D12*
X916940Y277368D02*
X916940Y282448D01*
X911860Y282448D01*
X896620Y282448D02*
X891540Y282448D01*
X891540Y277368D01*
X891540Y262128D02*
X891540Y257048D01*
X896620Y257048D01*
X911860Y257048D02*
X916940Y257048D01*
X916940Y262128D01*
D13*
X879475Y250063D02*
X883285Y238633D01*
X887095Y250063D01*
X891540Y246888D02*
X891540Y241808D01*
X891540Y246888D02*
X891542Y246999D01*
X891548Y247109D01*
X891557Y247220D01*
X891571Y247330D01*
X891588Y247439D01*
X891609Y247548D01*
X891634Y247656D01*
X891663Y247763D01*
X891695Y247869D01*
X891731Y247974D01*
X891771Y248077D01*
X891814Y248179D01*
X891861Y248280D01*
X891912Y248379D01*
X891965Y248476D01*
X892022Y248570D01*
X892083Y248663D01*
X892146Y248754D01*
X892213Y248843D01*
X892283Y248929D01*
X892356Y249012D01*
X892431Y249094D01*
X892509Y249172D01*
X892591Y249247D01*
X892674Y249320D01*
X892760Y249390D01*
X892849Y249457D01*
X892940Y249520D01*
X893033Y249581D01*
X893128Y249638D01*
X893224Y249691D01*
X893323Y249742D01*
X893424Y249789D01*
X893526Y249832D01*
X893629Y249872D01*
X893734Y249908D01*
X893840Y249940D01*
X893947Y249969D01*
X894055Y249994D01*
X894164Y250015D01*
X894273Y250032D01*
X894383Y250046D01*
X894494Y250055D01*
X894604Y250061D01*
X894715Y250063D01*
X894826Y250061D01*
X894936Y250055D01*
X895047Y250046D01*
X895157Y250032D01*
X895266Y250015D01*
X895375Y249994D01*
X895483Y249969D01*
X895590Y249940D01*
X895696Y249908D01*
X895801Y249872D01*
X895904Y249832D01*
X896006Y249789D01*
X896107Y249742D01*
X896206Y249691D01*
X896303Y249638D01*
X896397Y249581D01*
X896490Y249520D01*
X896581Y249457D01*
X896670Y249390D01*
X896756Y249320D01*
X896839Y249247D01*
X896921Y249172D01*
X896999Y249094D01*
X897074Y249012D01*
X897147Y248929D01*
X897217Y248843D01*
X897284Y248754D01*
X897347Y248663D01*
X897408Y248570D01*
X897465Y248476D01*
X897518Y248379D01*
X897569Y248280D01*
X897616Y248179D01*
X897659Y248077D01*
X897699Y247974D01*
X897735Y247869D01*
X897767Y247763D01*
X897796Y247656D01*
X897821Y247548D01*
X897842Y247439D01*
X897859Y247330D01*
X897873Y247220D01*
X897882Y247109D01*
X897888Y246999D01*
X897890Y246888D01*
X897890Y241808D01*
X897888Y241697D01*
X897882Y241587D01*
X897873Y241476D01*
X897859Y241366D01*
X897842Y241257D01*
X897821Y241148D01*
X897796Y241040D01*
X897767Y240933D01*
X897735Y240827D01*
X897699Y240722D01*
X897659Y240619D01*
X897616Y240517D01*
X897569Y240416D01*
X897518Y240317D01*
X897465Y240220D01*
X897408Y240126D01*
X897347Y240033D01*
X897284Y239942D01*
X897217Y239853D01*
X897147Y239767D01*
X897074Y239684D01*
X896999Y239602D01*
X896921Y239524D01*
X896839Y239449D01*
X896756Y239376D01*
X896670Y239306D01*
X896581Y239239D01*
X896490Y239176D01*
X896397Y239115D01*
X896303Y239058D01*
X896206Y239005D01*
X896107Y238954D01*
X896006Y238907D01*
X895904Y238864D01*
X895801Y238824D01*
X895696Y238788D01*
X895590Y238756D01*
X895483Y238727D01*
X895375Y238702D01*
X895266Y238681D01*
X895157Y238664D01*
X895047Y238650D01*
X894936Y238641D01*
X894826Y238635D01*
X894715Y238633D01*
X894604Y238635D01*
X894494Y238641D01*
X894383Y238650D01*
X894273Y238664D01*
X894164Y238681D01*
X894055Y238702D01*
X893947Y238727D01*
X893840Y238756D01*
X893734Y238788D01*
X893629Y238824D01*
X893526Y238864D01*
X893424Y238907D01*
X893323Y238954D01*
X893224Y239005D01*
X893128Y239058D01*
X893033Y239115D01*
X892940Y239176D01*
X892849Y239239D01*
X892760Y239306D01*
X892674Y239376D01*
X892591Y239449D01*
X892509Y239524D01*
X892431Y239602D01*
X892356Y239684D01*
X892283Y239767D01*
X892213Y239853D01*
X892146Y239942D01*
X892083Y240033D01*
X892022Y240126D01*
X891965Y240221D01*
X891912Y240317D01*
X891861Y240416D01*
X891814Y240517D01*
X891771Y240619D01*
X891731Y240722D01*
X891695Y240827D01*
X891663Y240933D01*
X891634Y241040D01*
X891609Y241148D01*
X891588Y241257D01*
X891571Y241366D01*
X891557Y241476D01*
X891548Y241587D01*
X891542Y241697D01*
X891540Y241808D01*
X903351Y241808D02*
X903351Y250063D01*
X903351Y241808D02*
X903353Y241697D01*
X903359Y241587D01*
X903368Y241476D01*
X903382Y241366D01*
X903399Y241257D01*
X903420Y241148D01*
X903445Y241040D01*
X903474Y240933D01*
X903506Y240827D01*
X903542Y240722D01*
X903582Y240619D01*
X903625Y240517D01*
X903672Y240416D01*
X903723Y240317D01*
X903776Y240221D01*
X903833Y240126D01*
X903894Y240033D01*
X903957Y239942D01*
X904024Y239853D01*
X904094Y239767D01*
X904167Y239684D01*
X904242Y239602D01*
X904320Y239524D01*
X904402Y239449D01*
X904485Y239376D01*
X904571Y239306D01*
X904660Y239239D01*
X904751Y239176D01*
X904844Y239115D01*
X904939Y239058D01*
X905035Y239005D01*
X905134Y238954D01*
X905235Y238907D01*
X905337Y238864D01*
X905440Y238824D01*
X905545Y238788D01*
X905651Y238756D01*
X905758Y238727D01*
X905866Y238702D01*
X905975Y238681D01*
X906084Y238664D01*
X906194Y238650D01*
X906305Y238641D01*
X906415Y238635D01*
X906526Y238633D01*
X906637Y238635D01*
X906747Y238641D01*
X906858Y238650D01*
X906968Y238664D01*
X907077Y238681D01*
X907186Y238702D01*
X907294Y238727D01*
X907401Y238756D01*
X907507Y238788D01*
X907612Y238824D01*
X907715Y238864D01*
X907817Y238907D01*
X907918Y238954D01*
X908017Y239005D01*
X908114Y239058D01*
X908208Y239115D01*
X908301Y239176D01*
X908392Y239239D01*
X908481Y239306D01*
X908567Y239376D01*
X908650Y239449D01*
X908732Y239524D01*
X908810Y239602D01*
X908885Y239684D01*
X908958Y239767D01*
X909028Y239853D01*
X909095Y239942D01*
X909158Y240033D01*
X909219Y240126D01*
X909276Y240220D01*
X909329Y240317D01*
X909380Y240416D01*
X909427Y240517D01*
X909470Y240619D01*
X909510Y240722D01*
X909546Y240827D01*
X909578Y240933D01*
X909607Y241040D01*
X909632Y241148D01*
X909653Y241257D01*
X909670Y241366D01*
X909684Y241476D01*
X909693Y241587D01*
X909699Y241697D01*
X909701Y241808D01*
X909701Y250063D01*
X917575Y250063D02*
X917575Y238633D01*
X914400Y250063D02*
X920750Y250063D01*
X925195Y243078D02*
X932815Y243078D01*
D12*
X730250Y77470D02*
X717550Y77470D01*
X711200Y83820D01*
X711200Y96520D02*
X717550Y102870D01*
X711200Y83820D02*
X704850Y77470D01*
X692150Y77470D01*
X685800Y83820D01*
X685800Y96520D02*
X692150Y102870D01*
X704850Y102870D01*
X711200Y96520D01*
X736600Y96520D02*
X736600Y83820D01*
X730250Y77470D01*
X736600Y96520D02*
X730250Y102870D01*
X717550Y102870D01*
X685800Y83820D02*
X679450Y77470D01*
X666750Y77470D01*
X660400Y83820D01*
X660400Y96520D02*
X666750Y102870D01*
X679450Y102870D01*
X685800Y96520D01*
X654050Y77470D02*
X641350Y77470D01*
X635000Y83820D01*
X635000Y96520D02*
X641350Y102870D01*
X660400Y83820D02*
X654050Y77470D01*
X660400Y96520D02*
X654050Y102870D01*
X641350Y102870D01*
X628650Y77470D02*
X615950Y77470D01*
X609600Y83820D01*
X609600Y96520D02*
X615950Y102870D01*
X609600Y83820D02*
X603250Y77470D01*
X590550Y77470D01*
X584200Y83820D01*
X584200Y96520D02*
X590550Y102870D01*
X603250Y102870D01*
X609600Y96520D01*
X628650Y77470D02*
X635000Y83820D01*
X635000Y96520D02*
X628650Y102870D01*
X615950Y102870D01*
X584200Y83820D02*
X577850Y77470D01*
X565150Y77470D01*
X558800Y83820D01*
X558800Y96520D02*
X565150Y102870D01*
X577850Y102870D01*
X584200Y96520D01*
X552450Y77470D02*
X539750Y77470D01*
X533400Y83820D01*
X533400Y96520D02*
X539750Y102870D01*
X558800Y83820D02*
X552450Y77470D01*
X558800Y96520D02*
X552450Y102870D01*
X539750Y102870D01*
X527050Y77470D02*
X514350Y77470D01*
X508000Y83820D01*
X508000Y96520D02*
X514350Y102870D01*
X508000Y83820D02*
X501650Y77470D01*
X488950Y77470D01*
X482600Y83820D01*
X482600Y96520D02*
X488950Y102870D01*
X501650Y102870D01*
X508000Y96520D01*
X527050Y77470D02*
X533400Y83820D01*
X533400Y96520D02*
X527050Y102870D01*
X514350Y102870D01*
X482600Y96520D02*
X482600Y83820D01*
D13*
X721995Y116205D02*
X725170Y118745D01*
X725170Y107315D01*
X721995Y107315D02*
X728345Y107315D01*
X486410Y73025D02*
X483235Y70485D01*
X486410Y73025D02*
X486410Y61595D01*
X483235Y61595D02*
X489585Y61595D01*
X494665Y67310D02*
X494668Y67535D01*
X494676Y67760D01*
X494689Y67984D01*
X494708Y68208D01*
X494732Y68432D01*
X494761Y68655D01*
X494796Y68877D01*
X494836Y69098D01*
X494882Y69318D01*
X494932Y69537D01*
X494988Y69755D01*
X495049Y69972D01*
X495115Y70187D01*
X495186Y70400D01*
X495263Y70611D01*
X495344Y70821D01*
X495430Y71029D01*
X495521Y71234D01*
X495617Y71437D01*
X495617Y71438D02*
X495649Y71526D01*
X495685Y71613D01*
X495724Y71699D01*
X495767Y71783D01*
X495813Y71865D01*
X495862Y71945D01*
X495914Y72023D01*
X495970Y72099D01*
X496028Y72173D01*
X496090Y72244D01*
X496154Y72313D01*
X496221Y72379D01*
X496290Y72442D01*
X496362Y72503D01*
X496436Y72561D01*
X496513Y72615D01*
X496591Y72667D01*
X496672Y72715D01*
X496754Y72760D01*
X496839Y72802D01*
X496925Y72840D01*
X497012Y72875D01*
X497100Y72907D01*
X497190Y72934D01*
X497281Y72959D01*
X497373Y72979D01*
X497465Y72996D01*
X497559Y73009D01*
X497652Y73018D01*
X497746Y73024D01*
X497840Y73026D01*
X497934Y73024D01*
X498028Y73018D01*
X498121Y73009D01*
X498215Y72996D01*
X498307Y72979D01*
X498399Y72959D01*
X498490Y72934D01*
X498580Y72907D01*
X498668Y72875D01*
X498755Y72840D01*
X498841Y72802D01*
X498926Y72760D01*
X499008Y72715D01*
X499089Y72667D01*
X499167Y72615D01*
X499244Y72561D01*
X499318Y72503D01*
X499390Y72442D01*
X499459Y72379D01*
X499526Y72313D01*
X499590Y72244D01*
X499652Y72173D01*
X499710Y72099D01*
X499766Y72023D01*
X499818Y71945D01*
X499867Y71865D01*
X499913Y71783D01*
X499956Y71699D01*
X499995Y71613D01*
X500031Y71526D01*
X500063Y71438D01*
X500063Y71437D02*
X500159Y71234D01*
X500250Y71029D01*
X500336Y70821D01*
X500417Y70611D01*
X500494Y70400D01*
X500565Y70187D01*
X500631Y69972D01*
X500692Y69755D01*
X500748Y69537D01*
X500798Y69318D01*
X500844Y69098D01*
X500884Y68877D01*
X500919Y68655D01*
X500948Y68432D01*
X500972Y68208D01*
X500991Y67984D01*
X501004Y67760D01*
X501012Y67535D01*
X501015Y67310D01*
X494665Y67310D02*
X494668Y67085D01*
X494676Y66860D01*
X494689Y66636D01*
X494708Y66412D01*
X494732Y66188D01*
X494761Y65965D01*
X494796Y65743D01*
X494836Y65522D01*
X494882Y65302D01*
X494932Y65083D01*
X494988Y64865D01*
X495049Y64648D01*
X495115Y64433D01*
X495186Y64220D01*
X495263Y64009D01*
X495344Y63799D01*
X495430Y63591D01*
X495521Y63386D01*
X495617Y63183D01*
X495649Y63095D01*
X495685Y63008D01*
X495724Y62922D01*
X495767Y62838D01*
X495813Y62756D01*
X495862Y62676D01*
X495914Y62598D01*
X495970Y62522D01*
X496028Y62448D01*
X496090Y62377D01*
X496154Y62308D01*
X496221Y62242D01*
X496290Y62179D01*
X496362Y62118D01*
X496436Y62060D01*
X496513Y62006D01*
X496591Y61954D01*
X496672Y61906D01*
X496754Y61861D01*
X496839Y61819D01*
X496925Y61781D01*
X497012Y61746D01*
X497100Y61714D01*
X497190Y61687D01*
X497281Y61662D01*
X497373Y61642D01*
X497465Y61625D01*
X497559Y61612D01*
X497652Y61603D01*
X497746Y61597D01*
X497840Y61595D01*
X500063Y63183D02*
X500159Y63386D01*
X500250Y63591D01*
X500336Y63799D01*
X500417Y64009D01*
X500494Y64220D01*
X500565Y64433D01*
X500631Y64648D01*
X500692Y64865D01*
X500748Y65083D01*
X500798Y65302D01*
X500844Y65522D01*
X500884Y65743D01*
X500919Y65965D01*
X500948Y66188D01*
X500972Y66412D01*
X500991Y66636D01*
X501004Y66860D01*
X501012Y67085D01*
X501015Y67310D01*
X500063Y63183D02*
X500031Y63095D01*
X499995Y63008D01*
X499956Y62922D01*
X499913Y62838D01*
X499867Y62756D01*
X499818Y62676D01*
X499766Y62598D01*
X499710Y62522D01*
X499652Y62448D01*
X499590Y62377D01*
X499526Y62308D01*
X499459Y62242D01*
X499390Y62179D01*
X499318Y62118D01*
X499244Y62060D01*
X499167Y62006D01*
X499089Y61954D01*
X499008Y61906D01*
X498926Y61861D01*
X498841Y61819D01*
X498755Y61781D01*
X498668Y61746D01*
X498580Y61714D01*
X498490Y61687D01*
X498399Y61662D01*
X498307Y61642D01*
X498215Y61625D01*
X498121Y61612D01*
X498028Y61603D01*
X497934Y61597D01*
X497840Y61595D01*
X495300Y64135D02*
X500380Y70485D01*
X717550Y73025D02*
X721360Y61595D01*
X725170Y73025D01*
X729615Y61595D02*
X732790Y61595D01*
X732901Y61597D01*
X733011Y61603D01*
X733122Y61612D01*
X733232Y61626D01*
X733341Y61643D01*
X733450Y61664D01*
X733558Y61689D01*
X733665Y61718D01*
X733771Y61750D01*
X733876Y61786D01*
X733979Y61826D01*
X734081Y61869D01*
X734182Y61916D01*
X734281Y61967D01*
X734378Y62020D01*
X734472Y62077D01*
X734565Y62138D01*
X734656Y62201D01*
X734745Y62268D01*
X734831Y62338D01*
X734914Y62411D01*
X734996Y62486D01*
X735074Y62564D01*
X735149Y62646D01*
X735222Y62729D01*
X735292Y62815D01*
X735359Y62904D01*
X735422Y62995D01*
X735483Y63088D01*
X735540Y63182D01*
X735593Y63279D01*
X735644Y63378D01*
X735691Y63479D01*
X735734Y63581D01*
X735774Y63684D01*
X735810Y63789D01*
X735842Y63895D01*
X735871Y64002D01*
X735896Y64110D01*
X735917Y64219D01*
X735934Y64328D01*
X735948Y64438D01*
X735957Y64549D01*
X735963Y64659D01*
X735965Y64770D01*
X735963Y64881D01*
X735957Y64991D01*
X735948Y65102D01*
X735934Y65212D01*
X735917Y65321D01*
X735896Y65430D01*
X735871Y65538D01*
X735842Y65645D01*
X735810Y65751D01*
X735774Y65856D01*
X735734Y65959D01*
X735691Y66061D01*
X735644Y66162D01*
X735593Y66261D01*
X735540Y66357D01*
X735483Y66452D01*
X735422Y66545D01*
X735359Y66636D01*
X735292Y66725D01*
X735222Y66811D01*
X735149Y66894D01*
X735074Y66976D01*
X734996Y67054D01*
X734914Y67129D01*
X734831Y67202D01*
X734745Y67272D01*
X734656Y67339D01*
X734565Y67402D01*
X734472Y67463D01*
X734378Y67520D01*
X734281Y67573D01*
X734182Y67624D01*
X734081Y67671D01*
X733979Y67714D01*
X733876Y67754D01*
X733771Y67790D01*
X733665Y67822D01*
X733558Y67851D01*
X733450Y67876D01*
X733341Y67897D01*
X733232Y67914D01*
X733122Y67928D01*
X733011Y67937D01*
X732901Y67943D01*
X732790Y67945D01*
X733425Y73025D02*
X729615Y73025D01*
X733425Y73025D02*
X733525Y73023D01*
X733624Y73017D01*
X733724Y73007D01*
X733822Y72994D01*
X733921Y72976D01*
X734018Y72955D01*
X734114Y72930D01*
X734210Y72901D01*
X734304Y72868D01*
X734397Y72832D01*
X734488Y72792D01*
X734578Y72748D01*
X734666Y72701D01*
X734752Y72651D01*
X734836Y72597D01*
X734918Y72540D01*
X734997Y72480D01*
X735075Y72416D01*
X735149Y72350D01*
X735221Y72281D01*
X735290Y72209D01*
X735356Y72135D01*
X735420Y72057D01*
X735480Y71978D01*
X735537Y71896D01*
X735591Y71812D01*
X735641Y71726D01*
X735688Y71638D01*
X735732Y71548D01*
X735772Y71457D01*
X735808Y71364D01*
X735841Y71270D01*
X735870Y71174D01*
X735895Y71078D01*
X735916Y70981D01*
X735934Y70882D01*
X735947Y70784D01*
X735957Y70684D01*
X735963Y70585D01*
X735965Y70485D01*
X735963Y70385D01*
X735957Y70286D01*
X735947Y70186D01*
X735934Y70088D01*
X735916Y69989D01*
X735895Y69892D01*
X735870Y69796D01*
X735841Y69700D01*
X735808Y69606D01*
X735772Y69513D01*
X735732Y69422D01*
X735688Y69332D01*
X735641Y69244D01*
X735591Y69158D01*
X735537Y69074D01*
X735480Y68992D01*
X735420Y68913D01*
X735356Y68835D01*
X735290Y68761D01*
X735221Y68689D01*
X735149Y68620D01*
X735075Y68554D01*
X734997Y68490D01*
X734918Y68430D01*
X734836Y68373D01*
X734752Y68319D01*
X734666Y68269D01*
X734578Y68222D01*
X734488Y68178D01*
X734397Y68138D01*
X734304Y68102D01*
X734210Y68069D01*
X734114Y68040D01*
X734018Y68015D01*
X733921Y67994D01*
X733822Y67976D01*
X733724Y67963D01*
X733624Y67953D01*
X733525Y67947D01*
X733425Y67945D01*
X730885Y67945D01*
D11*
X841248Y20320D02*
X841248Y8636D01*
X841248Y20320D02*
X844494Y20320D01*
X844607Y20318D01*
X844720Y20312D01*
X844833Y20302D01*
X844946Y20288D01*
X845058Y20271D01*
X845169Y20249D01*
X845279Y20224D01*
X845389Y20194D01*
X845497Y20161D01*
X845604Y20124D01*
X845710Y20084D01*
X845814Y20039D01*
X845917Y19991D01*
X846018Y19940D01*
X846117Y19885D01*
X846214Y19827D01*
X846309Y19765D01*
X846402Y19700D01*
X846492Y19632D01*
X846580Y19561D01*
X846666Y19486D01*
X846749Y19409D01*
X846829Y19329D01*
X846906Y19246D01*
X846981Y19160D01*
X847052Y19072D01*
X847120Y18982D01*
X847185Y18889D01*
X847247Y18794D01*
X847305Y18697D01*
X847360Y18598D01*
X847411Y18497D01*
X847459Y18394D01*
X847504Y18290D01*
X847544Y18184D01*
X847581Y18077D01*
X847614Y17969D01*
X847644Y17859D01*
X847669Y17749D01*
X847691Y17638D01*
X847708Y17526D01*
X847722Y17413D01*
X847732Y17300D01*
X847738Y17187D01*
X847740Y17074D01*
X847738Y16961D01*
X847732Y16848D01*
X847722Y16735D01*
X847708Y16622D01*
X847691Y16510D01*
X847669Y16399D01*
X847644Y16289D01*
X847614Y16179D01*
X847581Y16071D01*
X847544Y15964D01*
X847504Y15858D01*
X847459Y15754D01*
X847411Y15651D01*
X847360Y15550D01*
X847305Y15451D01*
X847247Y15354D01*
X847185Y15259D01*
X847120Y15166D01*
X847052Y15076D01*
X846981Y14988D01*
X846906Y14902D01*
X846829Y14819D01*
X846749Y14739D01*
X846666Y14662D01*
X846580Y14587D01*
X846492Y14516D01*
X846402Y14448D01*
X846309Y14383D01*
X846214Y14321D01*
X846117Y14263D01*
X846018Y14208D01*
X845917Y14157D01*
X845814Y14109D01*
X845710Y14064D01*
X845604Y14024D01*
X845497Y13987D01*
X845389Y13954D01*
X845279Y13924D01*
X845169Y13899D01*
X845058Y13877D01*
X844946Y13860D01*
X844833Y13846D01*
X844720Y13836D01*
X844607Y13830D01*
X844494Y13828D01*
X844494Y13829D02*
X841248Y13829D01*
X845143Y13829D02*
X847739Y8636D01*
X852110Y7338D02*
X857303Y7338D01*
X861254Y7338D02*
X866447Y7338D01*
D12*
X877824Y45720D02*
X877829Y46092D01*
X877842Y46463D01*
X877865Y46834D01*
X877896Y47204D01*
X877937Y47573D01*
X877987Y47941D01*
X878045Y48308D01*
X878113Y48673D01*
X878189Y49037D01*
X878274Y49398D01*
X878369Y49757D01*
X878471Y50114D01*
X878583Y50469D01*
X878703Y50820D01*
X878831Y51169D01*
X878968Y51514D01*
X879114Y51856D01*
X879267Y52194D01*
X879429Y52528D01*
X879599Y52858D01*
X879777Y53184D01*
X879963Y53506D01*
X880157Y53823D01*
X880358Y54135D01*
X880567Y54442D01*
X880783Y54744D01*
X881007Y55041D01*
X881237Y55332D01*
X881475Y55617D01*
X881720Y55897D01*
X881971Y56170D01*
X882229Y56437D01*
X882493Y56698D01*
X882764Y56953D01*
X883041Y57200D01*
X883324Y57441D01*
X883612Y57675D01*
X883906Y57902D01*
X884206Y58121D01*
X877824Y45720D02*
X877829Y45348D01*
X877842Y44977D01*
X877865Y44605D01*
X877897Y44235D01*
X877937Y43865D01*
X877987Y43497D01*
X878046Y43129D01*
X878113Y42764D01*
X878190Y42400D01*
X878276Y42038D01*
X878370Y41678D01*
X878473Y41321D01*
X878584Y40966D01*
X878705Y40614D01*
X878834Y40265D01*
X878971Y39920D01*
X879117Y39578D01*
X879271Y39239D01*
X879433Y38904D01*
X879603Y38574D01*
X879782Y38248D01*
X879968Y37926D01*
X880162Y37608D01*
X880364Y37296D01*
X880573Y36989D01*
X880790Y36687D01*
X881014Y36390D01*
X881245Y36098D01*
X881483Y35813D01*
X881729Y35533D01*
X881981Y35260D01*
X882239Y34992D01*
X882504Y34732D01*
X882775Y34477D01*
X883053Y34229D01*
X883336Y33989D01*
X883625Y33755D01*
X883920Y33528D01*
X908304Y45720D02*
X908300Y46085D01*
X908287Y46450D01*
X908265Y46814D01*
X908234Y47177D01*
X908195Y47540D01*
X908147Y47902D01*
X908090Y48262D01*
X908025Y48621D01*
X907952Y48979D01*
X907869Y49334D01*
X907779Y49687D01*
X907679Y50039D01*
X907572Y50387D01*
X907456Y50733D01*
X907332Y51076D01*
X907199Y51416D01*
X907059Y51753D01*
X906911Y52086D01*
X906754Y52416D01*
X906590Y52742D01*
X906418Y53064D01*
X906238Y53381D01*
X906051Y53694D01*
X905857Y54003D01*
X905655Y54307D01*
X905445Y54606D01*
X905229Y54900D01*
X905006Y55188D01*
X904776Y55471D01*
X904539Y55749D01*
X904296Y56021D01*
X904046Y56287D01*
X903790Y56547D01*
X903527Y56800D01*
X903259Y57048D01*
X902985Y57288D01*
X902705Y57523D01*
X902420Y57750D01*
X908304Y45720D02*
X908300Y45355D01*
X908287Y44990D01*
X908265Y44626D01*
X908234Y44263D01*
X908195Y43900D01*
X908147Y43538D01*
X908090Y43178D01*
X908025Y42819D01*
X907952Y42461D01*
X907869Y42106D01*
X907779Y41753D01*
X907679Y41401D01*
X907572Y41053D01*
X907456Y40707D01*
X907332Y40364D01*
X907199Y40024D01*
X907059Y39687D01*
X906911Y39354D01*
X906754Y39024D01*
X906590Y38698D01*
X906418Y38376D01*
X906238Y38059D01*
X906051Y37746D01*
X905857Y37437D01*
X905655Y37133D01*
X905445Y36834D01*
X905229Y36540D01*
X905006Y36252D01*
X904776Y35969D01*
X904539Y35691D01*
X904296Y35419D01*
X904046Y35153D01*
X903790Y34893D01*
X903527Y34640D01*
X903259Y34392D01*
X902985Y34152D01*
X902705Y33917D01*
X902420Y33690D01*
D14*
X872744Y45720D02*
X872750Y46214D01*
X872768Y46708D01*
X872798Y47202D01*
X872840Y47695D01*
X872894Y48186D01*
X872960Y48676D01*
X873038Y49164D01*
X873128Y49651D01*
X873229Y50135D01*
X873343Y50616D01*
X873468Y51094D01*
X873604Y51570D01*
X873752Y52041D01*
X873912Y52509D01*
X874083Y52973D01*
X874265Y53433D01*
X874458Y53888D01*
X874662Y54339D01*
X874877Y54784D01*
X875103Y55224D01*
X875340Y55658D01*
X875587Y56086D01*
X875844Y56508D01*
X876112Y56924D01*
X876390Y57333D01*
X876677Y57735D01*
X876974Y58131D01*
X877281Y58518D01*
X877597Y58899D01*
X877922Y59271D01*
X878257Y59636D01*
X878600Y59992D01*
X878951Y60339D01*
X879311Y60679D01*
X879679Y61009D01*
X880055Y61330D01*
X872744Y45720D02*
X872750Y45232D01*
X872767Y44745D01*
X872797Y44258D01*
X872838Y43771D01*
X872890Y43286D01*
X872955Y42802D01*
X873031Y42320D01*
X873118Y41840D01*
X873217Y41362D01*
X873327Y40887D01*
X873449Y40414D01*
X873582Y39945D01*
X873727Y39478D01*
X873882Y39016D01*
X874049Y38557D01*
X874226Y38102D01*
X874415Y37652D01*
X874614Y37207D01*
X874824Y36766D01*
X875044Y36330D01*
X875275Y35900D01*
X875516Y35476D01*
X875767Y35058D01*
X876028Y34645D01*
X876299Y34239D01*
X876579Y33840D01*
X876869Y33447D01*
X877169Y33062D01*
X877478Y32684D01*
X877795Y32313D01*
X878122Y31951D01*
X878457Y31596D01*
X878800Y31249D01*
X879152Y30911D01*
X879511Y30581D01*
X879879Y30260D01*
X880254Y29947D01*
X880637Y29644D01*
X881026Y29350D01*
X881423Y29066D01*
X881826Y28791D01*
X882236Y28526D01*
X882652Y28271D01*
X883074Y28026D01*
X883502Y27791D01*
X913384Y45720D02*
X913378Y46210D01*
X913360Y46700D01*
X913331Y47189D01*
X913289Y47678D01*
X913236Y48165D01*
X913172Y48651D01*
X913095Y49135D01*
X913007Y49617D01*
X912907Y50097D01*
X912796Y50575D01*
X912673Y51049D01*
X912538Y51521D01*
X912393Y51989D01*
X912236Y52453D01*
X912068Y52914D01*
X911889Y53370D01*
X911699Y53822D01*
X911498Y54269D01*
X911286Y54711D01*
X911064Y55148D01*
X910832Y55580D01*
X910589Y56006D01*
X910335Y56425D01*
X910072Y56839D01*
X909799Y57246D01*
X909516Y57646D01*
X909223Y58040D01*
X908922Y58426D01*
X908610Y58805D01*
X908290Y59176D01*
X907961Y59539D01*
X907624Y59895D01*
X907277Y60242D01*
X906923Y60580D01*
X906560Y60910D01*
X906190Y61232D01*
X913384Y45720D02*
X913378Y45223D01*
X913360Y44726D01*
X913329Y44230D01*
X913287Y43735D01*
X913232Y43241D01*
X913166Y42748D01*
X913087Y42258D01*
X912996Y41769D01*
X912894Y41283D01*
X912779Y40799D01*
X912653Y40319D01*
X912515Y39841D01*
X912366Y39367D01*
X912205Y38897D01*
X912032Y38431D01*
X911848Y37969D01*
X911653Y37512D01*
X911447Y37060D01*
X911230Y36613D01*
X911001Y36172D01*
X910763Y35736D01*
X910513Y35306D01*
X910253Y34883D01*
X909983Y34465D01*
X909703Y34055D01*
X909413Y33652D01*
X909113Y33255D01*
X908803Y32867D01*
X908484Y32486D01*
X908156Y32113D01*
X907819Y31748D01*
X907473Y31391D01*
X907118Y31043D01*
X906755Y30704D01*
X906384Y30373D01*
X906004Y30052D01*
X905617Y29740D01*
X905223Y29438D01*
X904821Y29146D01*
X904412Y28863D01*
X903997Y28591D01*
X903574Y28328D01*
X903146Y28077D01*
D13*
X876173Y20447D02*
X876173Y9017D01*
X881253Y9017D01*
X886079Y9017D02*
X891159Y9017D01*
X886079Y9017D02*
X886079Y20447D01*
X891159Y20447D01*
X889889Y15367D02*
X886079Y15367D01*
X895960Y20447D02*
X895960Y9017D01*
X895960Y20447D02*
X899135Y20447D01*
X899246Y20445D01*
X899356Y20439D01*
X899467Y20430D01*
X899577Y20416D01*
X899686Y20399D01*
X899795Y20378D01*
X899903Y20353D01*
X900010Y20324D01*
X900116Y20292D01*
X900221Y20256D01*
X900324Y20216D01*
X900426Y20173D01*
X900527Y20126D01*
X900626Y20075D01*
X900723Y20022D01*
X900817Y19965D01*
X900910Y19904D01*
X901001Y19841D01*
X901090Y19774D01*
X901176Y19704D01*
X901259Y19631D01*
X901341Y19556D01*
X901419Y19478D01*
X901494Y19396D01*
X901567Y19313D01*
X901637Y19227D01*
X901704Y19138D01*
X901767Y19047D01*
X901828Y18954D01*
X901885Y18860D01*
X901938Y18763D01*
X901989Y18664D01*
X902036Y18563D01*
X902079Y18461D01*
X902119Y18358D01*
X902155Y18253D01*
X902187Y18147D01*
X902216Y18040D01*
X902241Y17932D01*
X902262Y17823D01*
X902279Y17714D01*
X902293Y17604D01*
X902302Y17493D01*
X902308Y17383D01*
X902310Y17272D01*
X902310Y12192D01*
X902308Y12081D01*
X902302Y11971D01*
X902293Y11860D01*
X902279Y11750D01*
X902262Y11641D01*
X902241Y11532D01*
X902216Y11424D01*
X902187Y11317D01*
X902155Y11211D01*
X902119Y11106D01*
X902079Y11003D01*
X902036Y10901D01*
X901989Y10800D01*
X901938Y10701D01*
X901885Y10604D01*
X901828Y10510D01*
X901767Y10417D01*
X901704Y10326D01*
X901637Y10237D01*
X901567Y10151D01*
X901494Y10068D01*
X901419Y9986D01*
X901341Y9908D01*
X901259Y9833D01*
X901176Y9760D01*
X901090Y9690D01*
X901001Y9623D01*
X900910Y9560D01*
X900817Y9499D01*
X900723Y9442D01*
X900626Y9389D01*
X900527Y9338D01*
X900426Y9291D01*
X900324Y9248D01*
X900221Y9208D01*
X900116Y9172D01*
X900010Y9140D01*
X899903Y9111D01*
X899795Y9086D01*
X899686Y9065D01*
X899577Y9048D01*
X899467Y9034D01*
X899356Y9025D01*
X899246Y9019D01*
X899135Y9017D01*
X895960Y9017D01*
X892140Y421584D02*
X892140Y541584D01*
X947140Y541584D01*
X947140Y421584D01*
X892140Y421584D01*
X897171Y449115D02*
X895195Y451584D01*
X904085Y451584D01*
X904085Y449115D02*
X904085Y454053D01*
X895195Y511831D02*
X895197Y511923D01*
X895203Y512015D01*
X895212Y512106D01*
X895225Y512197D01*
X895242Y512287D01*
X895263Y512377D01*
X895287Y512465D01*
X895315Y512553D01*
X895347Y512639D01*
X895382Y512724D01*
X895421Y512807D01*
X895463Y512889D01*
X895508Y512969D01*
X895557Y513047D01*
X895609Y513123D01*
X895664Y513196D01*
X895722Y513268D01*
X895782Y513337D01*
X895846Y513403D01*
X895912Y513467D01*
X895981Y513527D01*
X896053Y513585D01*
X896126Y513640D01*
X896202Y513692D01*
X896280Y513741D01*
X896360Y513786D01*
X896442Y513828D01*
X896525Y513867D01*
X896610Y513902D01*
X896696Y513934D01*
X896784Y513962D01*
X896872Y513986D01*
X896962Y514007D01*
X897052Y514024D01*
X897143Y514037D01*
X897234Y514046D01*
X897326Y514052D01*
X897418Y514054D01*
X895195Y511831D02*
X895197Y511725D01*
X895203Y511620D01*
X895213Y511515D01*
X895226Y511410D01*
X895244Y511306D01*
X895265Y511203D01*
X895290Y511100D01*
X895319Y510998D01*
X895352Y510898D01*
X895388Y510799D01*
X895428Y510701D01*
X895472Y510605D01*
X895519Y510510D01*
X895569Y510418D01*
X895623Y510327D01*
X895681Y510238D01*
X895741Y510152D01*
X895805Y510068D01*
X895871Y509986D01*
X895941Y509906D01*
X896014Y509830D01*
X896089Y509756D01*
X896167Y509685D01*
X896248Y509617D01*
X896331Y509551D01*
X896417Y509489D01*
X896504Y509431D01*
X896594Y509375D01*
X896686Y509323D01*
X896780Y509274D01*
X896875Y509229D01*
X896972Y509187D01*
X897071Y509149D01*
X897170Y509115D01*
X899147Y513312D02*
X899078Y513381D01*
X899008Y513447D01*
X898934Y513510D01*
X898858Y513569D01*
X898780Y513626D01*
X898700Y513680D01*
X898617Y513730D01*
X898533Y513777D01*
X898446Y513820D01*
X898358Y513860D01*
X898269Y513896D01*
X898178Y513929D01*
X898086Y513958D01*
X897992Y513983D01*
X897898Y514004D01*
X897803Y514022D01*
X897707Y514035D01*
X897611Y514045D01*
X897515Y514051D01*
X897418Y514053D01*
X899146Y513313D02*
X904085Y509115D01*
X904085Y514053D01*
D12*
X879678Y454766D02*
X874710Y454766D01*
X874710Y454767D02*
X874599Y454769D01*
X874489Y454775D01*
X874378Y454785D01*
X874268Y454799D01*
X874159Y454816D01*
X874050Y454838D01*
X873942Y454863D01*
X873836Y454893D01*
X873730Y454926D01*
X873625Y454963D01*
X873522Y455003D01*
X873421Y455048D01*
X873321Y455095D01*
X873222Y455147D01*
X873126Y455202D01*
X873032Y455260D01*
X872940Y455321D01*
X872850Y455386D01*
X872762Y455454D01*
X872677Y455525D01*
X872595Y455599D01*
X872515Y455676D01*
X872438Y455756D01*
X872364Y455838D01*
X872293Y455923D01*
X872225Y456011D01*
X872160Y456101D01*
X872099Y456193D01*
X872041Y456287D01*
X871986Y456383D01*
X871934Y456482D01*
X871887Y456582D01*
X871842Y456683D01*
X871802Y456786D01*
X871765Y456891D01*
X871732Y456997D01*
X871702Y457103D01*
X871677Y457211D01*
X871655Y457320D01*
X871638Y457429D01*
X871624Y457539D01*
X871614Y457650D01*
X871608Y457760D01*
X871606Y457871D01*
X871608Y457982D01*
X871614Y458092D01*
X871624Y458203D01*
X871638Y458313D01*
X871655Y458422D01*
X871677Y458531D01*
X871702Y458639D01*
X871732Y458745D01*
X871765Y458851D01*
X871802Y458956D01*
X871842Y459059D01*
X871887Y459160D01*
X871934Y459260D01*
X871986Y459359D01*
X872041Y459455D01*
X872099Y459549D01*
X872160Y459641D01*
X872225Y459731D01*
X872293Y459819D01*
X872364Y459904D01*
X872438Y459986D01*
X872515Y460066D01*
X872595Y460143D01*
X872677Y460217D01*
X872762Y460288D01*
X872850Y460356D01*
X872940Y460421D01*
X873032Y460482D01*
X873126Y460540D01*
X873222Y460595D01*
X873321Y460647D01*
X873421Y460694D01*
X873522Y460739D01*
X873625Y460779D01*
X873730Y460816D01*
X873836Y460849D01*
X873942Y460879D01*
X874050Y460904D01*
X874159Y460926D01*
X874268Y460943D01*
X874378Y460957D01*
X874489Y460967D01*
X874599Y460973D01*
X874710Y460975D01*
X879678Y460975D01*
X879789Y460973D01*
X879899Y460967D01*
X880010Y460957D01*
X880120Y460943D01*
X880229Y460926D01*
X880338Y460904D01*
X880446Y460879D01*
X880552Y460849D01*
X880658Y460816D01*
X880763Y460779D01*
X880866Y460739D01*
X880967Y460694D01*
X881067Y460647D01*
X881166Y460595D01*
X881262Y460540D01*
X881356Y460482D01*
X881448Y460421D01*
X881538Y460356D01*
X881626Y460288D01*
X881711Y460217D01*
X881793Y460143D01*
X881873Y460066D01*
X881950Y459986D01*
X882024Y459904D01*
X882095Y459819D01*
X882163Y459731D01*
X882228Y459641D01*
X882289Y459549D01*
X882347Y459455D01*
X882402Y459359D01*
X882454Y459260D01*
X882501Y459160D01*
X882546Y459059D01*
X882586Y458956D01*
X882623Y458851D01*
X882656Y458745D01*
X882686Y458639D01*
X882711Y458531D01*
X882733Y458422D01*
X882750Y458313D01*
X882764Y458203D01*
X882774Y458092D01*
X882780Y457982D01*
X882782Y457871D01*
X882780Y457760D01*
X882774Y457650D01*
X882764Y457539D01*
X882750Y457429D01*
X882733Y457320D01*
X882711Y457211D01*
X882686Y457103D01*
X882656Y456997D01*
X882623Y456891D01*
X882586Y456786D01*
X882546Y456683D01*
X882501Y456582D01*
X882454Y456482D01*
X882402Y456383D01*
X882347Y456287D01*
X882289Y456193D01*
X882228Y456101D01*
X882163Y456011D01*
X882095Y455923D01*
X882024Y455838D01*
X881950Y455756D01*
X881873Y455676D01*
X881793Y455599D01*
X881711Y455525D01*
X881626Y455454D01*
X881538Y455386D01*
X881448Y455321D01*
X881356Y455260D01*
X881262Y455202D01*
X881166Y455147D01*
X881067Y455095D01*
X880967Y455048D01*
X880866Y455003D01*
X880763Y454963D01*
X880658Y454926D01*
X880552Y454893D01*
X880446Y454863D01*
X880338Y454838D01*
X880229Y454816D01*
X880120Y454799D01*
X880010Y454785D01*
X879899Y454775D01*
X879789Y454769D01*
X879678Y454767D01*
X882782Y466577D02*
X871606Y466577D01*
X882782Y472786D01*
X871606Y472786D01*
D15*
X861596Y97400D02*
X931596Y97400D01*
X931596Y109900D01*
X931596Y122400D01*
X931596Y207400D02*
X861596Y207400D01*
X931596Y207400D02*
X931596Y192400D01*
X931596Y182400D01*
D11*
X886653Y76708D02*
X884056Y76708D01*
X883957Y76710D01*
X883857Y76716D01*
X883758Y76725D01*
X883660Y76738D01*
X883562Y76755D01*
X883464Y76776D01*
X883368Y76801D01*
X883273Y76829D01*
X883179Y76861D01*
X883086Y76896D01*
X882994Y76935D01*
X882904Y76978D01*
X882816Y77023D01*
X882729Y77073D01*
X882645Y77125D01*
X882562Y77181D01*
X882482Y77239D01*
X882404Y77301D01*
X882329Y77366D01*
X882256Y77434D01*
X882186Y77504D01*
X882118Y77577D01*
X882053Y77652D01*
X881991Y77730D01*
X881933Y77810D01*
X881877Y77893D01*
X881825Y77977D01*
X881775Y78064D01*
X881730Y78152D01*
X881687Y78242D01*
X881648Y78334D01*
X881613Y78427D01*
X881581Y78521D01*
X881553Y78616D01*
X881528Y78712D01*
X881507Y78810D01*
X881490Y78908D01*
X881477Y79006D01*
X881468Y79105D01*
X881462Y79205D01*
X881460Y79304D01*
X881460Y85796D01*
X881462Y85895D01*
X881468Y85995D01*
X881477Y86094D01*
X881490Y86192D01*
X881507Y86290D01*
X881528Y86388D01*
X881553Y86484D01*
X881581Y86579D01*
X881613Y86673D01*
X881648Y86766D01*
X881687Y86858D01*
X881730Y86948D01*
X881775Y87036D01*
X881825Y87123D01*
X881877Y87207D01*
X881933Y87290D01*
X881991Y87370D01*
X882053Y87448D01*
X882118Y87523D01*
X882186Y87596D01*
X882256Y87666D01*
X882329Y87734D01*
X882404Y87799D01*
X882482Y87861D01*
X882562Y87919D01*
X882645Y87975D01*
X882729Y88027D01*
X882816Y88077D01*
X882904Y88122D01*
X882994Y88165D01*
X883086Y88204D01*
X883178Y88239D01*
X883273Y88271D01*
X883368Y88299D01*
X883464Y88324D01*
X883562Y88345D01*
X883660Y88362D01*
X883758Y88375D01*
X883857Y88384D01*
X883957Y88390D01*
X884056Y88392D01*
X886653Y88392D01*
X890369Y88392D02*
X894264Y76708D01*
X898158Y88392D01*
X902998Y83199D02*
X906244Y83199D01*
X906244Y83200D02*
X906357Y83198D01*
X906470Y83192D01*
X906583Y83182D01*
X906696Y83168D01*
X906808Y83151D01*
X906919Y83129D01*
X907029Y83104D01*
X907139Y83074D01*
X907247Y83041D01*
X907354Y83004D01*
X907460Y82964D01*
X907564Y82919D01*
X907667Y82871D01*
X907768Y82820D01*
X907867Y82765D01*
X907964Y82707D01*
X908059Y82645D01*
X908152Y82580D01*
X908242Y82512D01*
X908330Y82441D01*
X908416Y82366D01*
X908499Y82289D01*
X908579Y82209D01*
X908656Y82126D01*
X908731Y82040D01*
X908802Y81952D01*
X908870Y81862D01*
X908935Y81769D01*
X908997Y81674D01*
X909055Y81577D01*
X909110Y81478D01*
X909161Y81377D01*
X909209Y81274D01*
X909254Y81170D01*
X909294Y81064D01*
X909331Y80957D01*
X909364Y80849D01*
X909394Y80739D01*
X909419Y80629D01*
X909441Y80518D01*
X909458Y80406D01*
X909472Y80293D01*
X909482Y80180D01*
X909488Y80067D01*
X909490Y79954D01*
X909488Y79841D01*
X909482Y79728D01*
X909472Y79615D01*
X909458Y79502D01*
X909441Y79390D01*
X909419Y79279D01*
X909394Y79169D01*
X909364Y79059D01*
X909331Y78951D01*
X909294Y78844D01*
X909254Y78738D01*
X909209Y78634D01*
X909161Y78531D01*
X909110Y78430D01*
X909055Y78331D01*
X908997Y78234D01*
X908935Y78139D01*
X908870Y78046D01*
X908802Y77956D01*
X908731Y77868D01*
X908656Y77782D01*
X908579Y77699D01*
X908499Y77619D01*
X908416Y77542D01*
X908330Y77467D01*
X908242Y77396D01*
X908152Y77328D01*
X908059Y77263D01*
X907964Y77201D01*
X907867Y77143D01*
X907768Y77088D01*
X907667Y77037D01*
X907564Y76989D01*
X907460Y76944D01*
X907354Y76904D01*
X907247Y76867D01*
X907139Y76834D01*
X907029Y76804D01*
X906919Y76779D01*
X906808Y76757D01*
X906696Y76740D01*
X906583Y76726D01*
X906470Y76716D01*
X906357Y76710D01*
X906244Y76708D01*
X902998Y76708D01*
X902998Y88392D01*
X906244Y88392D01*
X906345Y88390D01*
X906445Y88384D01*
X906545Y88374D01*
X906645Y88361D01*
X906744Y88343D01*
X906843Y88322D01*
X906940Y88297D01*
X907037Y88268D01*
X907132Y88235D01*
X907226Y88199D01*
X907318Y88159D01*
X907409Y88116D01*
X907498Y88069D01*
X907585Y88019D01*
X907671Y87965D01*
X907754Y87908D01*
X907834Y87848D01*
X907913Y87785D01*
X907989Y87718D01*
X908062Y87649D01*
X908132Y87577D01*
X908200Y87503D01*
X908265Y87426D01*
X908326Y87346D01*
X908385Y87264D01*
X908440Y87180D01*
X908492Y87094D01*
X908541Y87006D01*
X908586Y86916D01*
X908628Y86824D01*
X908666Y86731D01*
X908700Y86636D01*
X908731Y86541D01*
X908758Y86444D01*
X908781Y86346D01*
X908801Y86247D01*
X908816Y86147D01*
X908828Y86047D01*
X908836Y85947D01*
X908840Y85846D01*
X908840Y85746D01*
X908836Y85645D01*
X908828Y85545D01*
X908816Y85445D01*
X908801Y85345D01*
X908781Y85246D01*
X908758Y85148D01*
X908731Y85051D01*
X908700Y84956D01*
X908666Y84861D01*
X908628Y84768D01*
X908586Y84676D01*
X908541Y84586D01*
X908492Y84498D01*
X908440Y84412D01*
X908385Y84328D01*
X908326Y84246D01*
X908265Y84166D01*
X908200Y84089D01*
X908132Y84015D01*
X908062Y83943D01*
X907989Y83874D01*
X907913Y83807D01*
X907834Y83744D01*
X907754Y83684D01*
X907671Y83627D01*
X907585Y83573D01*
X907498Y83523D01*
X907409Y83476D01*
X907318Y83433D01*
X907226Y83393D01*
X907132Y83357D01*
X907037Y83324D01*
X906940Y83295D01*
X906843Y83270D01*
X906744Y83249D01*
X906645Y83231D01*
X906545Y83218D01*
X906445Y83208D01*
X906345Y83202D01*
X906244Y83200D01*
X917392Y76708D02*
X917491Y76710D01*
X917591Y76716D01*
X917690Y76725D01*
X917788Y76738D01*
X917886Y76755D01*
X917984Y76776D01*
X918080Y76801D01*
X918175Y76829D01*
X918269Y76861D01*
X918362Y76896D01*
X918454Y76935D01*
X918544Y76978D01*
X918632Y77023D01*
X918719Y77073D01*
X918803Y77125D01*
X918886Y77181D01*
X918966Y77239D01*
X919044Y77301D01*
X919119Y77366D01*
X919192Y77434D01*
X919262Y77504D01*
X919330Y77577D01*
X919395Y77652D01*
X919457Y77730D01*
X919515Y77810D01*
X919571Y77893D01*
X919623Y77977D01*
X919673Y78064D01*
X919718Y78152D01*
X919761Y78242D01*
X919800Y78334D01*
X919835Y78427D01*
X919867Y78521D01*
X919895Y78616D01*
X919920Y78712D01*
X919941Y78810D01*
X919958Y78908D01*
X919971Y79006D01*
X919980Y79105D01*
X919986Y79205D01*
X919988Y79304D01*
X917392Y76708D02*
X917248Y76710D01*
X917103Y76716D01*
X916959Y76725D01*
X916816Y76738D01*
X916672Y76755D01*
X916529Y76776D01*
X916387Y76801D01*
X916246Y76829D01*
X916105Y76861D01*
X915965Y76897D01*
X915826Y76936D01*
X915688Y76979D01*
X915552Y77026D01*
X915416Y77076D01*
X915282Y77130D01*
X915150Y77187D01*
X915019Y77248D01*
X914890Y77312D01*
X914762Y77380D01*
X914636Y77450D01*
X914512Y77525D01*
X914391Y77602D01*
X914271Y77683D01*
X914153Y77766D01*
X914038Y77853D01*
X913925Y77943D01*
X913814Y78036D01*
X913706Y78131D01*
X913600Y78230D01*
X913497Y78331D01*
X913822Y85796D02*
X913824Y85895D01*
X913830Y85995D01*
X913839Y86094D01*
X913852Y86192D01*
X913869Y86290D01*
X913890Y86388D01*
X913915Y86484D01*
X913943Y86579D01*
X913975Y86673D01*
X914010Y86766D01*
X914049Y86858D01*
X914092Y86948D01*
X914137Y87036D01*
X914187Y87123D01*
X914239Y87207D01*
X914295Y87290D01*
X914353Y87370D01*
X914415Y87448D01*
X914480Y87523D01*
X914548Y87596D01*
X914618Y87666D01*
X914691Y87734D01*
X914766Y87799D01*
X914844Y87861D01*
X914924Y87919D01*
X915007Y87975D01*
X915091Y88027D01*
X915178Y88077D01*
X915266Y88122D01*
X915356Y88165D01*
X915448Y88204D01*
X915541Y88239D01*
X915635Y88271D01*
X915730Y88299D01*
X915827Y88324D01*
X915924Y88345D01*
X916022Y88362D01*
X916120Y88375D01*
X916219Y88384D01*
X916319Y88390D01*
X916418Y88392D01*
X916554Y88390D01*
X916690Y88384D01*
X916826Y88375D01*
X916962Y88362D01*
X917097Y88344D01*
X917231Y88324D01*
X917365Y88299D01*
X917499Y88271D01*
X917631Y88238D01*
X917762Y88203D01*
X917893Y88163D01*
X918022Y88120D01*
X918150Y88074D01*
X918276Y88023D01*
X918402Y87970D01*
X918525Y87912D01*
X918647Y87852D01*
X918767Y87788D01*
X918886Y87720D01*
X919002Y87650D01*
X919116Y87576D01*
X919229Y87499D01*
X919339Y87418D01*
X915119Y83524D02*
X915033Y83577D01*
X914949Y83634D01*
X914867Y83693D01*
X914787Y83756D01*
X914710Y83822D01*
X914635Y83890D01*
X914563Y83962D01*
X914494Y84036D01*
X914428Y84113D01*
X914365Y84192D01*
X914305Y84274D01*
X914248Y84358D01*
X914194Y84444D01*
X914144Y84532D01*
X914097Y84622D01*
X914053Y84713D01*
X914014Y84807D01*
X913977Y84901D01*
X913945Y84997D01*
X913916Y85095D01*
X913891Y85193D01*
X913870Y85292D01*
X913852Y85392D01*
X913839Y85492D01*
X913829Y85593D01*
X913823Y85695D01*
X913821Y85796D01*
X918690Y81576D02*
X918776Y81523D01*
X918860Y81466D01*
X918942Y81407D01*
X919022Y81344D01*
X919099Y81278D01*
X919174Y81210D01*
X919246Y81138D01*
X919315Y81064D01*
X919381Y80987D01*
X919444Y80908D01*
X919504Y80826D01*
X919561Y80742D01*
X919615Y80656D01*
X919665Y80568D01*
X919712Y80478D01*
X919756Y80387D01*
X919795Y80293D01*
X919832Y80199D01*
X919864Y80103D01*
X919893Y80005D01*
X919918Y79907D01*
X919939Y79808D01*
X919957Y79708D01*
X919970Y79608D01*
X919980Y79507D01*
X919986Y79405D01*
X919988Y79304D01*
X918690Y81576D02*
X915120Y83524D01*
M02*
