G04 EAGLE Gerber RS-274X export*
G75*
%MOMM*%
%FSLAX34Y34*%
%LPD*%
%AMOC8*
5,1,8,0,0,1.08239X$1,22.5*%
G01*
%ADD10R,2.703200X2.203200*%
%ADD11R,3.503200X2.203200*%
%ADD12R,3.303200X0.703200*%
%ADD13C,1.103200*%
%ADD14C,1.727200*%
%ADD15P,2.969212X8X22.500000*%
%ADD16R,1.803200X1.503200*%
%ADD17P,1.649562X8X112.500000*%
%ADD18C,2.133600*%
%ADD19R,3.203200X3.203200*%
%ADD20C,4.013200*%
%ADD21R,4.013200X4.013200*%
%ADD22C,5.203200*%
%ADD23C,0.959600*%


D10*
X920754Y386318D03*
X920754Y297318D03*
D11*
X861754Y386318D03*
X861754Y297318D03*
D12*
X860754Y325818D03*
X860754Y333818D03*
X860754Y341818D03*
X860754Y349818D03*
X860754Y357818D03*
D13*
X890754Y319818D03*
X890754Y363818D03*
D14*
X203200Y97790D02*
X203200Y82550D01*
X228600Y82550D02*
X228600Y97790D01*
X254000Y97790D02*
X254000Y82550D01*
X279400Y82550D02*
X279400Y97790D01*
X304800Y97790D02*
X304800Y82550D01*
X330200Y82550D02*
X330200Y97790D01*
X355600Y97790D02*
X355600Y82550D01*
X381000Y82550D02*
X381000Y97790D01*
X406400Y97790D02*
X406400Y82550D01*
X431800Y82550D02*
X431800Y97790D01*
X101600Y46990D02*
X101600Y31750D01*
X127000Y31750D02*
X127000Y46990D01*
X152400Y46990D02*
X152400Y31750D01*
D15*
X828040Y581152D03*
X904240Y581152D03*
X828040Y269748D03*
X904240Y269748D03*
D14*
X723900Y97790D02*
X723900Y82550D01*
X698500Y82550D02*
X698500Y97790D01*
X673100Y97790D02*
X673100Y82550D01*
X647700Y82550D02*
X647700Y97790D01*
X622300Y97790D02*
X622300Y82550D01*
X596900Y82550D02*
X596900Y97790D01*
X571500Y97790D02*
X571500Y82550D01*
X546100Y82550D02*
X546100Y97790D01*
X520700Y97790D02*
X520700Y82550D01*
X495300Y82550D02*
X495300Y97790D01*
D16*
X850392Y34696D03*
X850392Y53696D03*
D17*
X893064Y33020D03*
X893064Y58420D03*
D18*
X919480Y451584D03*
X919480Y511584D03*
X919640Y481584D03*
D19*
X920496Y421584D03*
X918972Y541584D03*
D20*
X831596Y152400D03*
D21*
X831596Y97400D03*
X831596Y207400D03*
X920496Y152400D03*
D22*
X865000Y630000D03*
X40000Y65000D03*
X780000Y65000D03*
D23*
X847090Y315722D03*
X862584Y426720D03*
M02*
