<?xml version="1.0" encoding="UTF-8" standalone="no"?>
<svg
   xmlns:dc="http://purl.org/dc/elements/1.1/"
   xmlns:cc="http://creativecommons.org/ns#"
   xmlns:rdf="http://www.w3.org/1999/02/22-rdf-syntax-ns#"
   xmlns:svg="http://www.w3.org/2000/svg"
   xmlns="http://www.w3.org/2000/svg"
   xmlns:sodipodi="http://sodipodi.sourceforge.net/DTD/sodipodi-0.dtd"
   xmlns:inkscape="http://www.inkscape.org/namespaces/inkscape"
   width="793.700787402"
   height="1122.51968504"
   version="1.1"
   id="svg67"
   sodipodi:docname="front.svg"
   inkscape:version="0.92.3 (2405546, 2018-03-11)">
  <metadata
     id="metadata71">
    <rdf:RDF>
      <cc:Work
         rdf:about="">
        <dc:format>image/svg+xml</dc:format>
        <dc:type
           rdf:resource="http://purl.org/dc/dcmitype/StillImage" />
        <dc:title></dc:title>
      </cc:Work>
    </rdf:RDF>
  </metadata>
  <sodipodi:namedview
     pagecolor="#ffffff"
     bordercolor="#666666"
     borderopacity="1"
     objecttolerance="10"
     gridtolerance="10"
     guidetolerance="10"
     inkscape:pageopacity="0"
     inkscape:pageshadow="2"
     inkscape:window-width="1920"
     inkscape:window-height="1027"
     id="namedview69"
     showgrid="false"
     inkscape:zoom="0.73940799"
     inkscape:cx="396.8504"
     inkscape:cy="507.16249"
     inkscape:window-x="-8"
     inkscape:window-y="472"
     inkscape:window-maximized="1"
     inkscape:current-layer="g65" />
  <desc
     id="desc10">D:\fablab_box\front.dxf - scale = 1.000000, origin = (0.000000, 0.000000), method = manual</desc>
  <defs
     id="defs25">
    <marker
       id="DistanceX"
       orient="auto"
       refX="0.0"
       refY="0.0"
       style="overflow:visible">
      <path
         d="M 3,-3 L -3,3 M 0,-5 L  0,5"
         style="stroke:#000000; stroke-width:0.5"
         id="path12" />
    </marker>
    <pattern
       height="8"
       id="Hatch"
       patternUnits="userSpaceOnUse"
       width="8"
       x="0"
       y="0">
      <path
         d="M8 4 l-4,4"
         linecap="square"
         stroke="#000000"
         stroke-width="0.25"
         id="path15" />
      <path
         d="M6 2 l-4,4"
         linecap="square"
         stroke="#000000"
         stroke-width="0.25"
         id="path17" />
      <path
         d="M4 0 l-4,4"
         linecap="square"
         stroke="#000000"
         stroke-width="0.25"
         id="path19" />
    </pattern>
    <symbol
       id="*Model_Space" />
    <symbol
       id="*Paper_Space" />
    <symbol
       id="*Paper_Space0" />
  </defs>
  <g
     inkscape:groupmode="layer"
     inkscape:label="0"
     id="g65">
    <path
       d="M 291.881608,1094.539588 L 291.881608,845.407308 L 182.200730,845.407308"
       style="stroke:#000000;fill:none"
       id="path27" />
    <path
       d="M 8.636336,897.964594 L 8.636336,943.672421"
       style="stroke:#000000;fill:none"
       id="path29" />
    <path
       d="M 8.636336,996.229707 L 8.636336,1041.982302"
       style="stroke:#000000;fill:none"
       id="path31" />
    <path
       d="M 8.636336,996.229707 L 27.662611,996.229707"
       style="stroke:#000000;fill:none"
       id="path33" />
    <path
       d="M 8.636336,1041.982302 L 27.662611,1041.982302"
       style="stroke:#000000;fill:none"
       id="path35" />
    <path
       d="M 8.636336,897.964594 L 27.662611,897.964594"
       style="stroke:#000000;fill:none"
       id="path37" />
    <path
       d="M 8.636336,943.672421 L 27.662611,943.672421"
       style="stroke:#000000;fill:none"
       id="path39" />
    <path
       d="M 27.662611,1094.539588 L 27.662611,1041.982302 L 27.662611,1094.539588 L 80.175129,1094.539588 L 80.175129,1113.565863"
       style="stroke:#000000;fill:none"
       id="path41" />
    <path
       d="M 133.493466,1113.565863 L 80.175129,1113.565863 L 80.175129,1094.539588"
       style="stroke:#000000;fill:none"
       id="path43" />
    <path
       d="M 133.493466,1094.539588 L 133.493466,1113.565863 L 133.493466,1094.539588 L 186.005985,1094.539588"
       style="stroke:#000000;fill:none"
       id="path45" />
    <path
       d="M 186.005985,1113.565863 L 186.005985,1094.539588 L 186.005985,1113.565863 L 239.324322,1113.565863"
       style="stroke:#000000;fill:none"
       id="path47" />
    <path
       d="M 239.324322,1094.539588 L 239.324322,1113.565863 L 239.324322,1094.539588 L 291.881608,1094.539588"
       style="stroke:#000000;fill:none"
       id="path49" />
    <path
       d="M 27.662611,996.229707 L 27.662611,943.672421"
       style="stroke:#000000;fill:none"
       id="path51" />
    <path
       d="M 27.662611,845.407308 L 114.467192,845.407308 L 27.662611,845.407308 L 27.662611,897.964594"
       style="stroke:#000000;fill:none"
       id="path53" />
    <path
       d="M 182.200730,977.203433 L 50.494140,977.203433 L 50.494140,867.477786 L 182.200730,867.477786 L 182.200730,977.203433 z"
       style="stroke:#000000;fill:none"
       id="path55" />
    <path
       d="M 182.200730,867.477786 L 50.494140,867.477786 L 50.494140,977.203433 L 182.200730,977.203433 L 182.200730,867.477786 z"
       style="stroke:#000000;fill:none"
       id="path57" />
    <path
       d="M 114.467192,826.336265 L 182.200730,826.336265"
       style="stroke:#000000;fill:none"
       id="path59" />
    <path
       d="M 114.467192,845.407308 L 114.467192,826.336265"
       style="stroke:#000000;fill:none"
       id="path61" />
    <path
       d="M 182.200730,826.336265 L 182.200730,845.407308"
       style="stroke:#000000;fill:none"
       id="path63" />
  </g>
</svg>
