<?xml version="1.0" encoding="UTF-8" standalone="no"?>
<svg
   xmlns:dc="http://purl.org/dc/elements/1.1/"
   xmlns:cc="http://creativecommons.org/ns#"
   xmlns:rdf="http://www.w3.org/1999/02/22-rdf-syntax-ns#"
   xmlns:svg="http://www.w3.org/2000/svg"
   xmlns="http://www.w3.org/2000/svg"
   xmlns:sodipodi="http://sodipodi.sourceforge.net/DTD/sodipodi-0.dtd"
   xmlns:inkscape="http://www.inkscape.org/namespaces/inkscape"
   width="1111.9541"
   height="779.89722"
   version="1.1"
   id="svg217"
   sodipodi:docname="box1.svg"
   inkscape:version="0.92.3 (2405546, 2018-03-11)">
  <metadata
     id="metadata221">
    <rdf:RDF>
      <cc:Work
         rdf:about="">
        <dc:format>image/svg+xml</dc:format>
        <dc:type
           rdf:resource="http://purl.org/dc/dcmitype/StillImage" />
        <dc:title></dc:title>
      </cc:Work>
    </rdf:RDF>
  </metadata>
  <sodipodi:namedview
     pagecolor="#ffffff"
     bordercolor="#666666"
     borderopacity="1"
     objecttolerance="10"
     gridtolerance="10"
     guidetolerance="10"
     inkscape:pageopacity="0"
     inkscape:pageshadow="2"
     inkscape:window-width="1920"
     inkscape:window-height="1027"
     id="namedview219"
     showgrid="false"
     inkscape:zoom="0.73940799"
     inkscape:cx="378.45276"
     inkscape:cy="542.84597"
     inkscape:window-x="-8"
     inkscape:window-y="472"
     inkscape:window-maximized="1"
     inkscape:current-layer="g215" />
  <desc
     id="desc10">C:\Users\gerald\Desktop\the_box\fablab\box\box1.dxf - scale = 1.000000, origin = (0.000000, 0.000000), method = manual</desc>
  <defs
     id="defs25">
    <marker
       id="DistanceX"
       orient="auto"
       refX="0"
       refY="0"
       style="overflow:visible">
      <path
         d="M 3,-3 -3,3 M 0,-5 V 5"
         style="stroke:#000000;stroke-width:0.5"
         id="path12"
         inkscape:connector-curvature="0" />
    </marker>
    <pattern
       height="8"
       id="Hatch"
       patternUnits="userSpaceOnUse"
       width="8"
       x="0"
       y="0">
      <path
         d="M8 4 l-4,4"
         linecap="square"
         stroke="#000000"
         stroke-width="0.25"
         id="path15" />
      <path
         d="M6 2 l-4,4"
         linecap="square"
         stroke="#000000"
         stroke-width="0.25"
         id="path17" />
      <path
         d="M4 0 l-4,4"
         linecap="square"
         stroke="#000000"
         stroke-width="0.25"
         id="path19" />
    </pattern>
    <symbol
       id="*Model_Space" />
    <symbol
       id="*Paper_Space" />
    <symbol
       id="*Paper_Space0" />
  </defs>
  <g
     inkscape:groupmode="layer"
     inkscape:label="0"
     id="g215"
     transform="translate(-18.397641,-324.20859)">
    <path
       d="m 186.30848,547.31479 v 64.64786 z"
       style="fill:none;stroke:#000000"
       id="path27"
       inkscape:connector-curvature="0" />
    <path
       d="m 186.30848,547.31479 h -41.54439 v 64.64786 h -9.35496 V 537.87017 H 90.098844 v 55.17334 -55.17334 h 45.310286 v 74.09248 h 9.35496 v -64.64786 z"
       style="fill:none;stroke:#000000"
       id="path29"
       inkscape:connector-curvature="0" />
    <path
       d="M 90.696605,343.62773 V 324.70859 H 143.56857 90.696605 Z"
       style="fill:none;stroke:#000000"
       id="path31"
       inkscape:connector-curvature="0" />
    <path
       d="M 249.31249,324.70859 H 196.44053 Z"
       style="fill:none;stroke:#000000"
       id="path33"
       inkscape:connector-curvature="0" />
    <path
       d="m 186.30848,611.96265 h 24.32887 v -96.77751 h 52.87197 v 77.85837 -77.85837 h -52.87197 v 96.77751 z"
       style="fill:none;stroke:#000000"
       id="path35"
       inkscape:connector-curvature="0" />
    <path
       d="M 90.098844,593.04351 H 18.935394 Z"
       style="fill:none;stroke:#000000"
       id="path37"
       inkscape:connector-curvature="0" />
    <path
       d="M 321.0737,540.14166 V 494.80149 Z"
       style="fill:none;stroke:#000000"
       id="path39"
       inkscape:connector-curvature="0" />
    <path
       d="m 321.0737,494.80149 h -18.88925 v -52.93174 h 18.88925 v -45.34017 45.34017 h -18.88925 v 52.93174 z"
       style="fill:none;stroke:#000000"
       id="path41"
       inkscape:connector-curvature="0" />
    <path
       d="m 302.18445,540.14166 v 52.90185 z"
       style="fill:none;stroke:#000000"
       id="path43"
       inkscape:connector-curvature="0" />
    <path
       d="m 249.31249,343.62773 h 52.87196 v 52.90185 h 18.88925 -18.88925 v -52.90185 z"
       style="fill:none;stroke:#000000"
       id="path45"
       inkscape:connector-curvature="0" />
    <path
       d="m 143.56857,343.62773 h 52.87196 v -18.91914 18.91914 z"
       style="fill:none;stroke:#000000"
       id="path47"
       inkscape:connector-curvature="0" />
    <path
       d="M 321.0737,540.14166 H 302.18445 Z"
       style="fill:none;stroke:#000000"
       id="path49"
       inkscape:connector-curvature="0" />
    <path
       d="m 143.56857,324.70859 v 18.91914 z"
       style="fill:none;stroke:#000000"
       id="path51"
       inkscape:connector-curvature="0" />
    <path
       d="m 249.31249,324.70859 v 18.91914 z"
       style="fill:none;stroke:#000000"
       id="path53"
       inkscape:connector-curvature="0" />
    <path
       d="M 90.696605,343.62773 H 18.935394 Z"
       style="fill:none;stroke:#000000"
       id="path55"
       inkscape:connector-curvature="0" />
    <path
       d="m 263.50932,593.04351 h 38.67513 z"
       style="fill:none;stroke:#000000"
       id="path57"
       inkscape:connector-curvature="0" />
    <path
       d="M 18.935394,343.62773 V 593.04351 Z"
       style="fill:none;stroke:#000000"
       id="path59"
       inkscape:connector-curvature="0" />
    <path
       d="m 62.688355,695.39637 -0.04877,-0.87777 -0.195059,-0.829 -0.292588,-0.78023 -0.438883,-0.73147 -0.487647,-0.73148 -0.585176,-0.58517 -0.731471,-0.48765 -0.731471,-0.43888 -0.780235,-0.29259 -0.829,-0.19506 -0.877765,-0.0488 -0.877765,0.0488 -0.829,0.19506 -0.780236,0.29259 -0.73147,0.43888 -0.731471,0.48765 -0.585177,0.58517 -0.487647,0.73148 -0.438882,0.73147 -0.292588,0.78023 -0.195059,0.829 -0.04877,0.87777 0.04877,0.87776 0.195059,0.829 0.292588,0.78024 0.438882,0.73147 0.487647,0.73147 0.585177,0.58517 0.731471,0.48765 0.73147,0.43888 0.780236,0.29259 0.829,0.19506 0.877765,0.0488 0.877765,-0.0488 0.829,-0.19506 0.780235,-0.29259 0.731471,-0.43888 0.731471,-0.48765 0.585176,-0.58517 0.487647,-0.73147 0.438883,-0.73147 0.292588,-0.78024 0.195059,-0.829 z"
       style="fill:none;stroke:#000000"
       id="path61"
       inkscape:connector-curvature="0" />
    <path
       d="m 276.08275,727.53231 -0.0488,-0.87776 -0.19506,-0.829 -0.29259,-0.78024 -0.43888,-0.73147 -0.48765,-0.73147 -0.58517,-0.58517 -0.73147,-0.48765 -0.73147,-0.43889 -0.78024,-0.29258 -0.829,-0.19506 -0.87776,-0.0488 -0.87777,0.0488 -0.829,0.19506 -0.78023,0.29258 -0.73148,0.43889 -0.73147,0.48765 -0.58517,0.58517 -0.48765,0.73147 -0.43888,0.73147 -0.29259,0.78024 -0.19506,0.829 -0.0488,0.87776 0.0488,0.87777 0.19506,0.829 0.29259,0.78023 0.43888,0.73147 0.48765,0.73147 0.58517,0.58518 0.73147,0.48765 0.73148,0.43888 0.78023,0.29259 0.829,0.19506 0.87777,0.0488 0.87776,-0.0488 0.829,-0.19506 0.78024,-0.29259 0.73147,-0.43888 0.73147,-0.48765 0.58517,-0.58518 0.48765,-0.73147 0.43888,-0.73147 0.29259,-0.78023 0.19506,-0.829 z"
       style="fill:none;stroke:#000000"
       id="path63"
       inkscape:connector-curvature="0" />
    <path
       d="m 276.08275,1007.198 -0.0488,-0.8778 -0.19506,-0.829 -0.29259,-0.7802 -0.43888,-0.7315 -0.48765,-0.7315 -0.58517,-0.5852 -0.73147,-0.4876 -0.73147,-0.4389 -0.78024,-0.2926 -0.829,-0.195 -0.87776,-0.049 -0.87777,0.049 -0.829,0.195 -0.78023,0.2926 -0.73148,0.4389 -0.73147,0.4876 -0.58517,0.5852 -0.48765,0.7315 -0.43888,0.7315 -0.29259,0.7802 -0.19506,0.829 -0.0488,0.8778 0.0488,0.8777 0.19506,0.829 0.29259,0.7803 0.43888,0.7314 0.48765,0.7315 0.58517,0.5852 0.73147,0.4876 0.73148,0.4389 0.78023,0.2926 0.829,0.195 0.87777,0.049 0.87776,-0.049 0.829,-0.195 0.78024,-0.2926 0.73147,-0.4389 0.73147,-0.4876 0.58517,-0.5852 0.48765,-0.7315 0.43888,-0.7314 0.29259,-0.7803 0.19506,-0.829 z"
       style="fill:none;stroke:#000000"
       id="path65"
       inkscape:connector-curvature="0" />
    <path
       d="m 225.85509,1011.7331 -0.0488,-0.8778 -0.19505,-0.829 -0.29259,-0.7802 -0.43888,-0.7315 -0.48765,-0.7315 -0.58518,-0.5851 -0.73147,-0.4877 -0.73147,-0.4389 -0.78024,-0.2926 -0.829,-0.195 -0.87776,-0.049 -0.87777,0.049 -0.829,0.195 -0.78023,0.2926 -0.73147,0.4389 -0.73147,0.4877 -0.58518,0.5851 -0.48765,0.7315 -0.43888,0.7315 -0.29259,0.7802 -0.19506,0.829 -0.0488,0.8778 0.0488,0.8777 0.19506,0.829 0.29259,0.7803 0.43888,0.7314 0.48765,0.7315 0.58518,0.5852 0.73147,0.4876 0.73147,0.4389 0.78023,0.2926 0.829,0.1951 0.87777,0.049 0.87776,-0.049 0.829,-0.1951 0.78024,-0.2926 0.73147,-0.4389 0.73147,-0.4876 0.58518,-0.5852 0.48765,-0.7315 0.43888,-0.7314 0.29259,-0.7803 0.19505,-0.829 z"
       style="fill:none;stroke:#000000"
       id="path67"
       inkscape:connector-curvature="0" />
    <path
       d="m 157.87708,754.74302 -0.0488,-0.87776 -0.19506,-0.829 -0.29258,-0.78024 -0.43889,-0.73147 -0.48764,-0.73147 -0.58518,-0.58518 -0.73147,-0.48764 -0.73147,-0.43888 -0.78024,-0.29259 -0.829,-0.19506 -0.87776,-0.0488 -0.87777,0.0488 -0.829,0.19506 -0.78023,0.29259 -0.73147,0.43888 -0.73147,0.48764 -0.58518,0.58518 -0.48765,0.73147 -0.43888,0.73147 -0.29259,0.78024 -0.19506,0.829 -0.0488,0.87776 0.0488,0.87777 0.19506,0.829 0.29259,0.78023 0.43888,0.73148 0.48765,0.73147 0.58518,0.58517 0.73147,0.48765 0.73147,0.43888 0.78023,0.29259 0.829,0.19506 0.87777,0.0488 0.87776,-0.0488 0.829,-0.19506 0.78024,-0.29259 0.73147,-0.43888 0.73147,-0.48765 0.58518,-0.58517 0.48764,-0.73147 0.43889,-0.73148 0.29258,-0.78023 0.19506,-0.829 z"
       style="fill:none;stroke:#000000"
       id="path69"
       inkscape:connector-curvature="0" />
    <path
       d="m 317.63028,729.43414 -0.0488,-0.87777 -0.19506,-0.829 -0.29259,-0.78023 -0.43888,-0.73147 -0.48765,-0.73148 -0.58518,-0.58517 -0.73147,-0.48765 -0.73147,-0.43888 -0.78023,-0.29259 -0.829,-0.19506 -0.87777,-0.0488 -0.87776,0.0488 -0.829,0.19506 -0.78024,0.29259 -0.73147,0.43888 -0.73147,0.48765 -0.58518,0.58517 -0.48764,0.73148 -0.43889,0.73147 -0.29258,0.78023 -0.19506,0.829 -0.0488,0.87777 0.0488,0.87776 0.19506,0.829 0.29258,0.78024 0.43889,0.73147 0.48764,0.73147 0.58518,0.58517 0.73147,0.48765 0.73147,0.43889 0.78024,0.29258 0.829,0.19506 0.87776,0.0488 0.87777,-0.0488 0.829,-0.19506 0.78023,-0.29258 0.73147,-0.43889 0.73147,-0.48765 0.58518,-0.58517 0.48765,-0.73147 0.43888,-0.73147 0.29259,-0.78024 0.19506,-0.829 z"
       style="fill:none;stroke:#000000"
       id="path71"
       inkscape:connector-curvature="0" />
    <path
       d="m 144.75937,634.92812 h 41.54754 v 18.92071 h 24.33359 v -18.92071 h 110.45208 v 468.67768 h -71.78166 71.78166 V 634.92812 H 210.6405 v 18.92071 h -24.33359 v -18.92071 h -41.54754 v 18.92071 h -9.36283 V 634.92812 H 18.897641 V 716.2189 H 37.81835 v 45.35118 H 18.897641 v 62.32131 -62.32131 H 37.81835 V 716.2189 H 18.897641 V 634.92812 H 135.39654 v 18.92071 h 9.36283 z"
       style="fill:none;stroke:#000000"
       id="path73"
       inkscape:connector-curvature="0" />
    <path
       d="m 317.63028,1009.0998 -0.0488,-0.8778 -0.19506,-0.829 -0.29259,-0.7802 -0.43888,-0.7315 -0.48765,-0.7315 -0.58518,-0.5851 -0.73147,-0.4877 -0.73147,-0.4389 -0.78023,-0.2926 -0.829,-0.195 -0.87777,-0.049 -0.87776,0.049 -0.829,0.195 -0.78024,0.2926 -0.73147,0.4389 -0.73147,0.4877 -0.58518,0.5851 -0.48764,0.7315 -0.43889,0.7315 -0.29258,0.7802 -0.19506,0.829 -0.0488,0.8778 0.0488,0.8777 0.19506,0.829 0.29258,0.7803 0.43889,0.7314 0.48764,0.7315 0.58518,0.5852 0.73147,0.4876 0.73147,0.4389 0.78024,0.2926 0.829,0.1951 0.87776,0.049 0.87777,-0.049 0.829,-0.1951 0.78023,-0.2926 0.73147,-0.4389 0.73147,-0.4876 0.58518,-0.5852 0.48765,-0.7315 0.43888,-0.7314 0.29259,-0.7803 0.19506,-0.829 z"
       style="fill:none;stroke:#000000"
       id="path75"
       inkscape:connector-curvature="0" />
    <path
       d="m 317.63028,1009.0998 -0.0488,-0.8778 -0.19506,-0.829 -0.29259,-0.7802 -0.43888,-0.7315 -0.48765,-0.7315 -0.58518,-0.5851 -0.73147,-0.4877 -0.73147,-0.4389 -0.78023,-0.2926 -0.829,-0.195 -0.87777,-0.049 -0.87776,0.049 -0.829,0.195 -0.78024,0.2926 -0.73147,0.4389 -0.73147,0.4877 -0.58518,0.5851 -0.48764,0.7315 -0.43889,0.7315 -0.29258,0.7802 -0.19506,0.829 -0.0488,0.8778 0.0488,0.8777 0.19506,0.829 0.29258,0.7803 0.43889,0.7314 0.48764,0.7315 0.58518,0.5852 0.73147,0.4876 0.73147,0.4389 0.78024,0.2926 0.829,0.1951 0.87776,0.049 0.87777,-0.049 0.829,-0.1951 0.78023,-0.2926 0.73147,-0.4389 0.73147,-0.4876 0.58518,-0.5852 0.48765,-0.7315 0.43888,-0.7314 0.29259,-0.7803 0.19506,-0.829 z"
       style="fill:none;stroke:#000000"
       id="path77"
       inkscape:connector-curvature="0" />
    <path
       d="m 317.63028,729.43414 -0.0488,-0.87777 -0.19506,-0.829 -0.29259,-0.78023 -0.43888,-0.73147 -0.48765,-0.73148 -0.58518,-0.58517 -0.73147,-0.48765 -0.73147,-0.43888 -0.78023,-0.29259 -0.829,-0.19506 -0.87777,-0.0488 -0.87776,0.0488 -0.829,0.19506 -0.78024,0.29259 -0.73147,0.43888 -0.73147,0.48765 -0.58518,0.58517 -0.48764,0.73148 -0.43889,0.73147 -0.29258,0.78023 -0.19506,0.829 -0.0488,0.87777 0.0488,0.87776 0.19506,0.829 0.29258,0.78024 0.43889,0.73147 0.48764,0.73147 0.58518,0.58517 0.73147,0.48765 0.73147,0.43889 0.78024,0.29258 0.829,0.19506 0.87776,0.0488 0.87777,-0.0488 0.829,-0.19506 0.78023,-0.29258 0.73147,-0.43889 0.73147,-0.48765 0.58518,-0.58517 0.48765,-0.73147 0.43888,-0.73147 0.29259,-0.78024 0.19506,-0.829 z"
       style="fill:none;stroke:#000000"
       id="path79"
       inkscape:connector-curvature="0" />
    <path
       d="m 249.31092,1084.6851 h -52.86095 v 18.9207 h -52.90972 52.90972 v -18.9207 z"
       style="fill:none;stroke:#000000"
       id="path81"
       inkscape:connector-curvature="0" />
    <path
       d="m 157.87708,754.74302 -0.0488,-0.87776 -0.19506,-0.829 -0.29258,-0.78024 -0.43889,-0.73147 -0.48764,-0.73147 -0.58518,-0.58518 -0.73147,-0.48764 -0.73147,-0.43888 -0.78024,-0.29259 -0.829,-0.19506 -0.87776,-0.0488 -0.87777,0.0488 -0.829,0.19506 -0.78023,0.29259 -0.73147,0.43888 -0.73147,0.48764 -0.58518,0.58518 -0.48765,0.73147 -0.43888,0.73147 -0.29259,0.78024 -0.19506,0.829 -0.0488,0.87776 0.0488,0.87777 0.19506,0.829 0.29259,0.78023 0.43888,0.73148 0.48765,0.73147 0.58518,0.58517 0.73147,0.48765 0.73147,0.43888 0.78023,0.29259 0.829,0.19506 0.87777,0.0488 0.87776,-0.0488 0.829,-0.19506 0.78024,-0.29259 0.73147,-0.43888 0.73147,-0.48765 0.58518,-0.58517 0.48764,-0.73147 0.43889,-0.73148 0.29258,-0.78023 0.19506,-0.829 z"
       style="fill:none;stroke:#000000"
       id="path83"
       inkscape:connector-curvature="0" />
    <path
       d="m 225.85509,1011.7331 -0.0488,-0.8778 -0.19505,-0.829 -0.29259,-0.7802 -0.43888,-0.7315 -0.48765,-0.7315 -0.58518,-0.5851 -0.73147,-0.4877 -0.73147,-0.4389 -0.78024,-0.2926 -0.829,-0.195 -0.87776,-0.049 -0.87777,0.049 -0.829,0.195 -0.78023,0.2926 -0.73147,0.4389 -0.73147,0.4877 -0.58518,0.5851 -0.48765,0.7315 -0.43888,0.7315 -0.29259,0.7802 -0.19506,0.829 -0.0488,0.8778 0.0488,0.8777 0.19506,0.829 0.29259,0.7803 0.43888,0.7314 0.48765,0.7315 0.58518,0.5852 0.73147,0.4876 0.73147,0.4389 0.78023,0.2926 0.829,0.1951 0.87777,0.049 0.87776,-0.049 0.829,-0.1951 0.78024,-0.2926 0.73147,-0.4389 0.73147,-0.4876 0.58518,-0.5852 0.48765,-0.7315 0.43888,-0.7314 0.29259,-0.7803 0.19505,-0.829 z"
       style="fill:none;stroke:#000000"
       id="path85"
       inkscape:connector-curvature="0" />
    <path
       d="m 276.08275,1007.198 -0.0488,-0.8778 -0.19506,-0.829 -0.29259,-0.7802 -0.43888,-0.7315 -0.48765,-0.7315 -0.58517,-0.5852 -0.73147,-0.4876 -0.73147,-0.4389 -0.78024,-0.2926 -0.829,-0.195 -0.87776,-0.049 -0.87777,0.049 -0.829,0.195 -0.78023,0.2926 -0.73148,0.4389 -0.73147,0.4876 -0.58517,0.5852 -0.48765,0.7315 -0.43888,0.7315 -0.29259,0.7802 -0.19506,0.829 -0.0488,0.8778 0.0488,0.8777 0.19506,0.829 0.29259,0.7803 0.43888,0.7314 0.48765,0.7315 0.58517,0.5852 0.73147,0.4876 0.73148,0.4389 0.78023,0.2926 0.829,0.195 0.87777,0.049 0.87776,-0.049 0.829,-0.195 0.78024,-0.2926 0.73147,-0.4389 0.73147,-0.4876 0.58517,-0.5852 0.48765,-0.7315 0.43888,-0.7314 0.29259,-0.7803 0.19506,-0.829 z"
       style="fill:none;stroke:#000000"
       id="path87"
       inkscape:connector-curvature="0" />
    <path
       d="m 276.08275,727.53231 -0.0488,-0.87776 -0.19506,-0.829 -0.29259,-0.78024 -0.43888,-0.73147 -0.48765,-0.73147 -0.58517,-0.58517 -0.73147,-0.48765 -0.73147,-0.43889 -0.78024,-0.29258 -0.829,-0.19506 -0.87776,-0.0488 -0.87777,0.0488 -0.829,0.19506 -0.78023,0.29258 -0.73148,0.43889 -0.73147,0.48765 -0.58517,0.58517 -0.48765,0.73147 -0.43888,0.73147 -0.29259,0.78024 -0.19506,0.829 -0.0488,0.87776 0.0488,0.87777 0.19506,0.829 0.29259,0.78023 0.43888,0.73147 0.48765,0.73147 0.58517,0.58518 0.73147,0.48765 0.73148,0.43888 0.78023,0.29259 0.829,0.19506 0.87777,0.0488 0.87776,-0.0488 0.829,-0.19506 0.78024,-0.29259 0.73147,-0.43888 0.73147,-0.48765 0.58517,-0.58518 0.48765,-0.73147 0.43888,-0.73147 0.29259,-0.78023 0.19506,-0.829 z"
       style="fill:none;stroke:#000000"
       id="path89"
       inkscape:connector-curvature="0" />
    <path
       d="m 62.688355,695.39637 -0.04877,-0.87777 -0.195059,-0.829 -0.292588,-0.78023 -0.438883,-0.73147 -0.487647,-0.73148 -0.585176,-0.58517 -0.731471,-0.48765 -0.731471,-0.43888 -0.780235,-0.29259 -0.829,-0.19506 -0.877765,-0.0488 -0.877765,0.0488 -0.829,0.19506 -0.780236,0.29259 -0.73147,0.43888 -0.731471,0.48765 -0.585177,0.58517 -0.487647,0.73148 -0.438882,0.73147 -0.292588,0.78023 -0.195059,0.829 -0.04877,0.87777 0.04877,0.87776 0.195059,0.829 0.292588,0.78024 0.438882,0.73147 0.487647,0.73147 0.585177,0.58517 0.731471,0.48765 0.73147,0.43888 0.780236,0.29259 0.829,0.19506 0.877765,0.0488 0.877765,-0.0488 0.829,-0.19506 0.780235,-0.29259 0.731471,-0.43888 0.731471,-0.48765 0.585176,-0.58517 0.487647,-0.73147 0.438883,-0.73147 0.292588,-0.78024 0.195059,-0.829 z"
       style="fill:none;stroke:#000000"
       id="path91"
       inkscape:connector-curvature="0" />
    <path
       d="M 143.54025,1084.6851 H 90.679301 v 18.5793 H 18.897641 V 1022.315 H 37.81835 V 976.96383 H 18.897641 V 914.64252 H 37.81835 V 823.89139 H 18.897641 37.81835 v 90.75113 H 18.897641 v 62.32131 H 37.81835 V 1022.315 H 18.897641 v 80.9494 h 71.78166 v -18.5793 z"
       style="fill:none;stroke:#000000"
       id="path93"
       inkscape:connector-curvature="0" />
    <path
       d="m 249.31092,1084.6851 v 18.9207 z"
       style="fill:none;stroke:#000000"
       id="path95"
       inkscape:connector-curvature="0" />
    <path
       d="m 143.54025,1084.6851 v 18.9207 z"
       style="fill:none;stroke:#000000"
       id="path97"
       inkscape:connector-curvature="0" />
    <path
       d="m 359.05512,1103.6058 h 105.77067 v -18.9207 h 67.97801 v 18.9207 H 661.25006 532.8038 v -18.9207 h -67.97801 v 18.9207 z"
       style="fill:none;stroke:#000000"
       id="path99"
       inkscape:connector-curvature="0" />
    <path
       d="M 661.25006,634.92812 H 589.4684 v 18.92071 h -52.86095 v -18.92071 h -52.90972 v 18.92071 h -52.86095 v -18.92071 h -71.78166 71.78166 v 18.92071 h 52.86095 v -18.92071 h 52.90972 v 18.92071 h 52.86095 v -18.92071 z"
       style="fill:none;stroke:#000000"
       id="path101"
       inkscape:connector-curvature="0" />
    <path
       d="m 374.51354,729.43414 -0.0488,-0.87777 -0.19506,-0.829 -0.29259,-0.78023 -0.43888,-0.73147 -0.48765,-0.73148 -0.58517,-0.58517 -0.73147,-0.48765 -0.73147,-0.43888 -0.78024,-0.29259 -0.829,-0.19506 -0.87776,-0.0488 -0.87777,0.0488 -0.829,0.19506 -0.78023,0.29259 -0.73147,0.43888 -0.73148,0.48765 -0.58517,0.58517 -0.48765,0.73148 -0.43888,0.73147 -0.29259,0.78023 -0.19506,0.829 -0.0488,0.87777 0.0488,0.87776 0.19506,0.829 0.29259,0.78024 0.43888,0.73147 0.48765,0.73147 0.58517,0.58517 0.73148,0.48765 0.73147,0.43889 0.78023,0.29258 0.829,0.19506 0.87777,0.0488 0.87776,-0.0488 0.829,-0.19506 0.78024,-0.29258 0.73147,-0.43889 0.73147,-0.48765 0.58517,-0.58517 0.48765,-0.73147 0.43888,-0.73147 0.29259,-0.78024 0.19506,-0.829 z"
       style="fill:none;stroke:#000000"
       id="path103"
       inkscape:connector-curvature="0" />
    <path
       d="m 374.51354,1009.0998 -0.0488,-0.8778 -0.19506,-0.829 -0.29259,-0.7802 -0.43888,-0.7315 -0.48765,-0.7315 -0.58517,-0.5851 -0.73147,-0.4877 -0.73147,-0.4389 -0.78024,-0.2926 -0.829,-0.195 -0.87776,-0.049 -0.87777,0.049 -0.829,0.195 -0.78023,0.2926 -0.73147,0.4389 -0.73148,0.4877 -0.58517,0.5851 -0.48765,0.7315 -0.43888,0.7315 -0.29259,0.7802 -0.19506,0.829 -0.0488,0.8778 0.0488,0.8777 0.19506,0.829 0.29259,0.7803 0.43888,0.7314 0.48765,0.7315 0.58517,0.5852 0.73148,0.4876 0.73147,0.4389 0.78023,0.2926 0.829,0.1951 0.87777,0.049 0.87776,-0.049 0.829,-0.1951 0.78024,-0.2926 0.73147,-0.4389 0.73147,-0.4876 0.58517,-0.5852 0.48765,-0.7315 0.43888,-0.7314 0.29259,-0.7803 0.19506,-0.829 z"
       style="fill:none;stroke:#000000"
       id="path105"
       inkscape:connector-curvature="0" />
    <path
       d="m 661.25006,716.2189 h -18.92071 v 45.35118 h 18.92071 z"
       style="fill:none;stroke:#000000"
       id="path107"
       inkscape:connector-curvature="0" />
    <path
       d="m 374.51354,729.43414 -0.0488,-0.87777 -0.19506,-0.829 -0.29259,-0.78023 -0.43888,-0.73147 -0.48765,-0.73148 -0.58517,-0.58517 -0.73147,-0.48765 -0.73147,-0.43888 -0.78024,-0.29259 -0.829,-0.19506 -0.87776,-0.0488 -0.87777,0.0488 -0.829,0.19506 -0.78023,0.29259 -0.73147,0.43888 -0.73148,0.48765 -0.58517,0.58517 -0.48765,0.73148 -0.43888,0.73147 -0.29259,0.78023 -0.19506,0.829 -0.0488,0.87777 0.0488,0.87776 0.19506,0.829 0.29259,0.78024 0.43888,0.73147 0.48765,0.73147 0.58517,0.58517 0.73148,0.48765 0.73147,0.43889 0.78023,0.29258 0.829,0.19506 0.87777,0.0488 0.87776,-0.0488 0.829,-0.19506 0.78024,-0.29258 0.73147,-0.43889 0.73147,-0.48765 0.58517,-0.58517 0.48765,-0.73147 0.43888,-0.73147 0.29259,-0.78024 0.19506,-0.829 z"
       style="fill:none;stroke:#000000"
       id="path109"
       inkscape:connector-curvature="0" />
    <path
       d="m 374.51354,1009.0998 -0.0488,-0.8778 -0.19506,-0.829 -0.29259,-0.7802 -0.43888,-0.7315 -0.48765,-0.7315 -0.58517,-0.5851 -0.73147,-0.4877 -0.73147,-0.4389 -0.78024,-0.2926 -0.829,-0.195 -0.87776,-0.049 -0.87777,0.049 -0.829,0.195 -0.78023,0.2926 -0.73147,0.4389 -0.73148,0.4877 -0.58517,0.5851 -0.48765,0.7315 -0.43888,0.7315 -0.29259,0.7802 -0.19506,0.829 -0.0488,0.8778 0.0488,0.8777 0.19506,0.829 0.29259,0.7803 0.43888,0.7314 0.48765,0.7315 0.58517,0.5852 0.73148,0.4876 0.73147,0.4389 0.78023,0.2926 0.829,0.1951 0.87777,0.049 0.87776,-0.049 0.829,-0.1951 0.78024,-0.2926 0.73147,-0.4389 0.73147,-0.4876 0.58517,-0.5852 0.48765,-0.7315 0.43888,-0.7314 0.29259,-0.7803 0.19506,-0.829 z"
       style="fill:none;stroke:#000000"
       id="path111"
       inkscape:connector-curvature="0" />
    <path
       d="M 359.05512,1103.6058 V 634.92812 Z"
       style="fill:none;stroke:#000000"
       id="path113"
       inkscape:connector-curvature="0" />
    <path
       d="m 661.25006,914.64252 h -18.92071 v -90.75113 h 18.92071 -18.92071 v 90.75113 z"
       style="fill:none;stroke:#000000"
       id="path115"
       inkscape:connector-curvature="0" />
    <path
       d="m 661.25006,1022.315 h -18.92071 v -45.35117 h 18.92071 -18.92071 v 45.35117 z"
       style="fill:none;stroke:#000000"
       id="path117"
       inkscape:connector-curvature="0" />
    <path
       d="M 661.25006,761.57008 H 642.32935 V 716.2189 h 18.92071 z"
       style="fill:none;stroke:#000000"
       id="path119"
       inkscape:connector-curvature="0" />
    <path
       d="M 661.25006,634.92812 V 716.2189 Z"
       style="fill:none;stroke:#000000"
       id="path121"
       inkscape:connector-curvature="0" />
    <path
       d="M 661.25006,976.96383 V 914.64252 Z"
       style="fill:none;stroke:#000000"
       id="path123"
       inkscape:connector-curvature="0" />
    <path
       d="m 661.25006,1022.315 v 81.2908 z"
       style="fill:none;stroke:#000000"
       id="path125"
       inkscape:connector-curvature="0" />
    <path
       d="M 661.25006,823.89139 V 761.57008 Z"
       style="fill:none;stroke:#000000"
       id="path127"
       inkscape:connector-curvature="0" />
    <path
       d="M 532.82792,347.71811 H 642.33774 V 597.13389 347.71811 Z"
       style="fill:none;stroke:#000000"
       id="path129"
       inkscape:connector-curvature="0" />
    <path
       d="M 359.08868,445.96013 V 400.61996 Z"
       style="fill:none;stroke:#000000"
       id="path131"
       inkscape:connector-curvature="0" />
    <path
       d="M 359.08868,544.23204 V 498.89187 Z"
       style="fill:none;stroke:#000000"
       id="path133"
       inkscape:connector-curvature="0" />
    <path
       d="M 377.97793,498.89187 H 359.08868 Z"
       style="fill:none;stroke:#000000"
       id="path135"
       inkscape:connector-curvature="0" />
    <path
       d="M 377.97793,544.23204 H 359.08868 Z"
       style="fill:none;stroke:#000000"
       id="path137"
       inkscape:connector-curvature="0" />
    <path
       d="M 377.97793,400.61996 H 359.08868 Z"
       style="fill:none;stroke:#000000"
       id="path139"
       inkscape:connector-curvature="0" />
    <path
       d="M 377.97793,445.96013 H 359.08868 Z"
       style="fill:none;stroke:#000000"
       id="path141"
       inkscape:connector-curvature="0" />
    <path
       d="m 377.97793,544.23204 v 52.90185 h 52.87196 v 18.91914 h 52.87196 v -18.91914 h 52.87196 v 18.91914 h 52.87197 v -18.91914 h 52.87196 -52.87196 v 18.91914 h -52.87197 v -18.91914 h -52.87196 v 18.91914 h -52.87196 v -18.91914 h -52.87196 z"
       style="fill:none;stroke:#000000"
       id="path143"
       inkscape:connector-curvature="0" />
    <path
       d="m 377.97793,445.96013 v 52.93174 z"
       style="fill:none;stroke:#000000"
       id="path145"
       inkscape:connector-curvature="0" />
    <path
       d="m 464.8326,347.71811 h -86.85467 v 52.90185 -52.90185 z"
       style="fill:none;stroke:#000000"
       id="path147"
       inkscape:connector-curvature="0" />
    <path
       d="M 400.63307,370.37325 V 479.97273 H 532.82792 V 370.37325 Z"
       style="fill:none;stroke:#000000"
       id="path149"
       inkscape:connector-curvature="0" />
    <path
       d="M 532.82792,479.97273 H 400.63307 V 370.37325 h 132.19485 z"
       style="fill:none;stroke:#000000"
       id="path151"
       inkscape:connector-curvature="0" />
    <path
       d="M 532.82792,328.79897 H 464.8326 Z"
       style="fill:none;stroke:#000000"
       id="path153"
       inkscape:connector-curvature="0" />
    <path
       d="m 464.8326,328.79897 v 18.91914 z"
       style="fill:none;stroke:#000000"
       id="path155"
       inkscape:connector-curvature="0" />
    <path
       d="M 532.82792,347.71811 V 328.79897 Z"
       style="fill:none;stroke:#000000"
       id="path157"
       inkscape:connector-curvature="0" />
    <path
       d="m 1048.6553,347.7033 h 81.1964 v 52.91168 h -18.8751 v 45.34489 h 18.8751 v 52.91168 h -18.8751 v 45.37282 h 18.8751 v 52.91168 h -88.3723 V 585.7919 h 5.6681 v -7.92977 h -5.6681 v -10.94532 h -12.0901 v 10.94532 h -5.6681 v 7.92977 h 5.6681 v 11.36415 H 761.98288 V 585.7919 h 5.66811 v -7.92977 h -5.66811 v -10.94532 h -12.09011 v 10.94532 h -5.66811 v 7.92977 h 5.66811 v 11.36415 H 680.39558 V 347.7033 h 62.32131 v -18.90302 18.90302 h -62.32131 v 249.45275 h 69.49719 V 585.7919 h -5.66811 v -7.92977 h 5.66811 v -10.94532 h 12.09011 v 10.94532 h 5.66811 v 7.92977 h -5.66811 v 11.36415 H 1029.3893 V 585.7919 h -5.6681 v -7.92977 h 5.6681 v -10.94532 h 12.0901 v 10.94532 h 5.6681 v 7.92977 h -5.6681 v 11.36415 h 88.3723 v -52.91168 h -18.8751 v -45.37282 h 18.8751 v -52.91168 h -18.8751 v -45.34489 h 18.8751 V 347.7033 Z"
       style="fill:none;stroke:#000000"
       id="path159"
       inkscape:connector-curvature="0" />
    <path
       d="m 985.18921,411.9512 h 45.31699 v -49.11433 h -45.31699 z"
       style="fill:none;stroke:#000000"
       id="path161"
       inkscape:connector-curvature="0" />
    <path
       d="m 860.5466,411.9512 h 30.21131 V 351.50065 H 860.5466 Z"
       style="fill:none;stroke:#000000"
       id="path163"
       inkscape:connector-curvature="0" />
    <path
       d="m 917.19979,411.9512 h 30.23924 v -49.11433 h -30.23924 z"
       style="fill:none;stroke:#000000"
       id="path165"
       inkscape:connector-curvature="0" />
    <path
       d="m 845.05003,478.09778 -0.0279,-0.6422 -0.11168,-0.6422 -0.16753,-0.6422 -0.2513,-0.61428 -0.30714,-0.55843 -0.36298,-0.55843 -0.41883,-0.50259 -0.47467,-0.44675 -0.53051,-0.39091 -0.55843,-0.33506 -0.58636,-0.27921 -0.61428,-0.19546 -0.6422,-0.13961 -0.6422,-0.0838 h -0.67012 l -0.6422,0.0838 -0.6422,0.13961 -0.61428,0.19546 -0.58635,0.27921 -0.55844,0.33506 -0.53051,0.39091 -0.47467,0.44675 -0.41883,0.50259 -0.36298,0.55843 -0.30714,0.55843 -0.25129,0.61428 -0.16753,0.6422 -0.11169,0.6422 -0.0279,0.6422 0.0279,0.6422 0.11169,0.6422 0.16753,0.6422 0.25129,0.61428 0.30714,0.55843 0.36298,0.55844 0.41883,0.50259 0.47467,0.44675 0.53051,0.3909 0.55844,0.33506 0.58635,0.27922 0.61428,0.19545 0.6422,0.13961 0.6422,0.0838 h 0.67012 l 0.6422,-0.0838 0.6422,-0.13961 0.61428,-0.19545 0.58636,-0.27922 0.55843,-0.33506 0.53051,-0.3909 0.47467,-0.44675 0.41883,-0.50259 0.36298,-0.55844 0.30714,-0.55843 0.2513,-0.61428 0.16753,-0.6422 0.11168,-0.6422 z"
       style="fill:none;stroke:#000000"
       id="path167"
       inkscape:connector-curvature="0" />
    <path
       d="m 845.05003,561.2487 -0.0279,-0.6422 -0.11168,-0.6422 -0.16753,-0.6422 -0.2513,-0.61428 -0.30714,-0.55843 -0.36298,-0.55844 -0.41883,-0.50259 -0.47467,-0.44675 -0.53051,-0.3909 -0.55843,-0.33506 -0.58636,-0.27922 -0.61428,-0.19545 -0.6422,-0.13961 -0.6422,-0.0838 h -0.67012 l -0.6422,0.0838 -0.6422,0.13961 -0.61428,0.19545 -0.58635,0.27922 -0.55844,0.33506 -0.53051,0.3909 -0.47467,0.44675 -0.41883,0.50259 -0.36298,0.55844 -0.30714,0.55843 -0.25129,0.61428 -0.16753,0.6422 -0.11169,0.6422 -0.0279,0.6422 0.0279,0.6422 0.11169,0.6422 0.16753,0.6422 0.25129,0.61428 0.30714,0.55843 0.36298,0.55844 0.41883,0.50259 0.47467,0.44675 0.53051,0.3909 0.55844,0.33506 0.58635,0.27922 0.61428,0.19545 0.6422,0.13961 0.6422,0.0838 h 0.67012 l 0.6422,-0.0838 0.6422,-0.13961 0.61428,-0.19545 0.58636,-0.27922 0.55843,-0.33506 0.53051,-0.3909 0.47467,-0.44675 0.41883,-0.50259 0.36298,-0.55844 0.30714,-0.55843 0.2513,-0.61428 0.16753,-0.6422 0.11168,-0.6422 z"
       style="fill:none;stroke:#000000"
       id="path169"
       inkscape:connector-curvature="0" />
    <path
       d="M 788.03386,328.80028 H 742.71689 Z"
       style="fill:none;stroke:#000000"
       id="path171"
       inkscape:connector-curvature="0" />
    <path
       d="m 1003.3104,328.80028 h 45.3449 z"
       style="fill:none;stroke:#000000"
       id="path173"
       inkscape:connector-curvature="0" />
    <path
       d="M 941.01703,328.80028 H 850.35516 Z"
       style="fill:none;stroke:#000000"
       id="path175"
       inkscape:connector-curvature="0" />
    <path
       d="m 917.19979,362.83687 h 30.23924 v 49.11433 h -30.23924 z"
       style="fill:none;stroke:#000000"
       id="path177"
       inkscape:connector-curvature="0" />
    <path
       d="m 985.18921,362.83687 h 45.31699 v 49.11433 h -45.31699 z"
       style="fill:none;stroke:#000000"
       id="path179"
       inkscape:connector-curvature="0" />
    <path
       d="m 860.5466,351.50065 h 30.21131 V 411.9512 H 860.5466 Z"
       style="fill:none;stroke:#000000"
       id="path181"
       inkscape:connector-curvature="0" />
    <path
       d="m 845.05003,478.09778 -0.0279,-0.6422 -0.11168,-0.6422 -0.16753,-0.6422 -0.2513,-0.61428 -0.30714,-0.55843 -0.36298,-0.55843 -0.41883,-0.50259 -0.47467,-0.44675 -0.53051,-0.39091 -0.55843,-0.33506 -0.58636,-0.27921 -0.61428,-0.19546 -0.6422,-0.13961 -0.6422,-0.0838 h -0.67012 l -0.6422,0.0838 -0.6422,0.13961 -0.61428,0.19546 -0.58635,0.27921 -0.55844,0.33506 -0.53051,0.39091 -0.47467,0.44675 -0.41883,0.50259 -0.36298,0.55843 -0.30714,0.55843 -0.25129,0.61428 -0.16753,0.6422 -0.11169,0.6422 -0.0279,0.6422 0.0279,0.6422 0.11169,0.6422 0.16753,0.6422 0.25129,0.61428 0.30714,0.55843 0.36298,0.55844 0.41883,0.50259 0.47467,0.44675 0.53051,0.3909 0.55844,0.33506 0.58635,0.27922 0.61428,0.19545 0.6422,0.13961 0.6422,0.0838 h 0.67012 l 0.6422,-0.0838 0.6422,-0.13961 0.61428,-0.19545 0.58636,-0.27922 0.55843,-0.33506 0.53051,-0.3909 0.47467,-0.44675 0.41883,-0.50259 0.36298,-0.55844 0.30714,-0.55843 0.2513,-0.61428 0.16753,-0.6422 0.11168,-0.6422 z"
       style="fill:none;stroke:#000000"
       id="path183"
       inkscape:connector-curvature="0" />
    <path
       d="m 845.05003,561.2487 -0.0279,-0.6422 -0.11168,-0.6422 -0.16753,-0.6422 -0.2513,-0.61428 -0.30714,-0.55843 -0.36298,-0.55844 -0.41883,-0.50259 -0.47467,-0.44675 -0.53051,-0.3909 -0.55843,-0.33506 -0.58636,-0.27922 -0.61428,-0.19545 -0.6422,-0.13961 -0.6422,-0.0838 h -0.67012 l -0.6422,0.0838 -0.6422,0.13961 -0.61428,0.19545 -0.58635,0.27922 -0.55844,0.33506 -0.53051,0.3909 -0.47467,0.44675 -0.41883,0.50259 -0.36298,0.55844 -0.30714,0.55843 -0.25129,0.61428 -0.16753,0.6422 -0.11169,0.6422 -0.0279,0.6422 0.0279,0.6422 0.11169,0.6422 0.16753,0.6422 0.25129,0.61428 0.30714,0.55843 0.36298,0.55844 0.41883,0.50259 0.47467,0.44675 0.53051,0.3909 0.55844,0.33506 0.58635,0.27922 0.61428,0.19545 0.6422,0.13961 0.6422,0.0838 h 0.67012 l 0.6422,-0.0838 0.6422,-0.13961 0.61428,-0.19545 0.58636,-0.27922 0.55843,-0.33506 0.53051,-0.3909 0.47467,-0.44675 0.41883,-0.50259 0.36298,-0.55844 0.30714,-0.55843 0.2513,-0.61428 0.16753,-0.6422 0.11168,-0.6422 z"
       style="fill:none;stroke:#000000"
       id="path185"
       inkscape:connector-curvature="0" />
    <path
       d="m 941.01703,347.7033 h 62.29337 z"
       style="fill:none;stroke:#000000"
       id="path187"
       inkscape:connector-curvature="0" />
    <path
       d="m 788.03386,347.7033 h 62.3213 z"
       style="fill:none;stroke:#000000"
       id="path189"
       inkscape:connector-curvature="0" />
    <path
       d="M 1003.3104,328.80028 V 347.7033 Z"
       style="fill:none;stroke:#000000"
       id="path191"
       inkscape:connector-curvature="0" />
    <path
       d="M 1048.6553,347.7033 V 328.80028 Z"
       style="fill:none;stroke:#000000"
       id="path193"
       inkscape:connector-curvature="0" />
    <path
       d="M 788.03386,328.80028 V 347.7033 Z"
       style="fill:none;stroke:#000000"
       id="path195"
       inkscape:connector-curvature="0" />
    <path
       d="M 850.35516,328.80028 V 347.7033 Z"
       style="fill:none;stroke:#000000"
       id="path197"
       inkscape:connector-curvature="0" />
    <path
       d="M 941.01703,347.7033 V 328.80028 Z"
       style="fill:none;stroke:#000000"
       id="path199"
       inkscape:connector-curvature="0" />
    <path
       d="m 881.99219,805.01945 h 62.71142 V 735.48096 H 933.3902 v 5.65671 h -7.94865 v -5.65671 h -10.97206 v -12.09365 h 10.97206 v -5.65671 h 7.94865 v 5.65671 h 11.31341 v -88.45919 h -52.86095 v 18.92071 h -45.35118 v -18.92071 h -52.86095 v 18.92071 h -45.30242 v -18.92071 h -52.90972 52.90972 v 18.92071 h 45.30242 v -18.92071 h 52.86095 v 18.92071 h 45.35118 v -18.92071 h 52.86095 v 88.45919 H 933.3902 v -5.65671 h -7.94865 v 5.65671 h -10.97206 v 12.09365 h 10.97206 v 5.65671 h 7.94865 v -5.65671 h 11.31341 v 69.53849 h -62.71142 v 52.90971 h 62.71142 V 1003.053 H 933.3902 v -5.65676 h -7.94865 v 5.65676 h -10.97206 v 12.0936 h 10.97206 v 5.6567 h 7.94865 v -5.6567 h 11.31341 v 88.4592 H 695.41839 v -81.2908 h -18.87194 v -45.35117 45.35117 h 18.87194 v 81.2908 h 249.28522 v -88.4592 H 933.3902 v 5.6567 h -7.94865 v -5.6567 h -10.97206 v -12.0936 h 10.97206 v -5.65676 h 7.94865 v 5.65676 h 11.31341 V 857.92916 h -62.71142 z"
       style="fill:none;stroke:#000000"
       id="path201"
       inkscape:connector-curvature="0" />
    <path
       d="m 676.54645,914.64252 h 18.87194 v 62.32131 -62.32131 h -18.87194 v -90.75113 z"
       style="fill:none;stroke:#000000"
       id="path203"
       inkscape:connector-curvature="0" />
    <path
       d="m 676.54645,761.57008 h 18.87194 v 62.32131 -62.32131 H 676.54645 V 716.2189 Z"
       style="fill:none;stroke:#000000"
       id="path205"
       inkscape:connector-curvature="0" />
    <path
       d="M 695.41839,634.92812 V 716.2189 Z"
       style="fill:none;stroke:#000000"
       id="path207"
       inkscape:connector-curvature="0" />
    <path
       d="m 676.54645,716.2189 h 18.87194 z"
       style="fill:none;stroke:#000000"
       id="path209"
       inkscape:connector-curvature="0" />
    <path
       d="m 676.54645,976.96383 h 18.87194 z"
       style="fill:none;stroke:#000000"
       id="path211"
       inkscape:connector-curvature="0" />
    <path
       d="m 676.54645,823.89139 h 18.87194 z"
       style="fill:none;stroke:#000000"
       id="path213"
       inkscape:connector-curvature="0" />
  </g>
</svg>
